<?xml version="1.0" encoding="iso-8859-1"?>
<svg width="230" height="240" viewBox="0 0 230 240" fill="none" version="1.1" id="Capa_1" xmlns="http://www.w3.org/2000/svg" xmlns:xlink="http://www.w3.org/1999/xlink">
<g filter="url(#filter0_f)">
<circle cx="115" cy="115" r="35" fill="#8F00FF"/>
</g>
<path fill-rule="evenodd" clip-rule="evenodd" d="M134.58 99.0867L135.719 56L109.472 90.1882C108.153 91.9063 105.877 92.5797 103.836 91.8561L63.2098 77.4579L87.6078 112.977C88.8371 114.767 88.771 117.145 87.444 118.864L61 153.112L61.0032 153.111C61.0012 153.111 61 153.112 61 153.112L61.0032 153.111C61.2717 153.019 78.8294 146.993 86.8634 141.97C98.1945 134.886 103.323 129.798 108.142 117.473L101.961 108.474L112.251 112.121L118.899 103.462L118.61 114.375L128.9 118.022L118.432 121.119C113.694 133.355 114.898 141.666 119.353 154.063C122.519 162.875 132.57 178.43 132.61 178.491L133.634 135.234C133.686 133.063 135.132 131.174 137.214 130.558L178.534 118.33L137.908 103.932C135.866 103.208 134.523 101.252 134.58 99.0867Z" fill="#F7DDBF"/>
<path d="M49.3972 216.315C48.6776 216.315 47.9377 216.255 47.1776 216.133C46.4256 216.02 45.7181 215.871 45.0551 215.685C44.4001 215.499 43.8664 215.305 43.454 215.102L43.7451 211.597C44.3031 211.913 44.8853 212.183 45.4917 212.41C46.1062 212.628 46.7167 212.798 47.3232 212.919C47.9377 213.041 48.5239 213.101 49.0819 213.101C49.6398 213.101 50.125 213.032 50.5374 212.895C50.9497 212.758 51.2691 212.551 51.4955 212.276C51.7219 211.993 51.8352 211.63 51.8352 211.185C51.8352 210.732 51.6856 210.36 51.3864 210.069C51.0953 209.77 50.6748 209.511 50.125 209.293C49.5751 209.066 48.9202 208.844 48.1601 208.626C47.1089 208.318 46.2114 207.963 45.4674 207.558C44.7235 207.146 44.1535 206.62 43.7573 205.981C43.3691 205.335 43.1751 204.506 43.1751 203.495C43.1751 202.484 43.3974 201.595 43.8422 200.827C44.2869 200.05 44.958 199.444 45.8556 199.007C46.7531 198.571 47.8892 198.352 49.2638 198.352C49.8056 198.352 50.3473 198.389 50.8891 198.462C51.4309 198.526 51.9564 198.615 52.4659 198.728C52.9834 198.842 53.4604 198.971 53.8971 199.116C54.3337 199.262 54.7138 199.416 55.0372 199.577L54.734 203.095C54.2165 202.771 53.6788 202.5 53.1208 202.282C52.5629 202.064 52.0171 201.898 51.4834 201.785C50.9497 201.672 50.4646 201.615 50.0279 201.615C49.5347 201.615 49.0859 201.68 48.6816 201.809C48.2854 201.938 47.9701 202.137 47.7356 202.403C47.5011 202.67 47.3838 203.006 47.3838 203.41C47.3838 203.806 47.493 204.142 47.7113 204.417C47.9377 204.684 48.2814 204.922 48.7423 205.132C49.2113 205.335 49.8137 205.545 50.5495 205.763C51.9322 206.176 53.0238 206.608 53.8243 207.061C54.6248 207.506 55.1908 208.043 55.5224 208.674C55.862 209.305 56.0318 210.097 56.0318 211.051C56.0318 212.111 55.8013 213.036 55.3404 213.829C54.8795 214.613 54.1599 215.224 53.1815 215.66C52.2031 216.097 50.9417 216.315 49.3972 216.315ZM72.7961 216C72.2624 215.232 71.757 214.512 71.28 213.841C70.811 213.162 70.3501 212.495 69.8973 211.84L67.617 208.577H66.5012V205.448H67.5685L69.6062 202.779C70.0913 202.149 70.5724 201.522 71.0495 200.899C71.5266 200.269 72.0805 199.537 72.7112 198.704H77.3081C76.5561 199.618 75.8202 200.515 75.1006 201.397C74.389 202.278 73.6734 203.168 72.9538 204.065L70.2126 207.449L70.1398 205.69L73.1842 209.899C73.6532 210.546 74.1545 211.241 74.6882 211.985C75.23 212.729 75.7555 213.453 76.265 214.156C76.7744 214.86 77.2232 215.474 77.6113 216H72.7961ZM62.8382 216C62.8382 215.07 62.8382 214.169 62.8382 213.295C62.8382 212.422 62.8382 211.444 62.8382 210.36V204.49C62.8382 203.374 62.8382 202.367 62.8382 201.47C62.8382 200.572 62.8382 199.65 62.8382 198.704H66.8165C66.8165 199.65 66.8165 200.572 66.8165 201.47C66.8165 202.367 66.8165 203.374 66.8165 204.49V210.36C66.8165 211.444 66.8165 212.422 66.8165 213.295C66.8165 214.169 66.8165 215.07 66.8165 216H62.8382ZM88.8243 209.899L85.2584 203.119C84.8703 202.383 84.4983 201.68 84.1425 201.009C83.7948 200.337 83.3905 199.569 82.9296 198.704H87.4659C87.7651 199.375 88.0198 199.953 88.23 200.439C88.4402 200.916 88.6383 201.368 88.8243 201.797C89.0184 202.226 89.2286 202.699 89.455 203.216L90.5709 205.739H90.8984L92.0021 203.289C92.2528 202.747 92.4751 202.254 92.6692 201.809C92.8713 201.364 93.0816 200.899 93.2999 200.414C93.5182 199.929 93.777 199.359 94.0762 198.704H98.479C98.0908 199.448 97.7027 200.192 97.3146 200.936C96.9265 201.672 96.5505 202.395 96.1866 203.107L92.6328 209.899H88.8243ZM88.7394 216C88.7394 215.07 88.7394 214.169 88.7394 213.295C88.7394 212.422 88.7394 211.444 88.7394 210.36V206.539H92.742V210.36C92.742 211.444 92.742 212.422 92.742 213.295C92.742 214.169 92.742 215.07 92.742 216H88.7394ZM128.092 216C128.092 215.07 128.092 214.169 128.092 213.295C128.092 212.422 128.092 211.444 128.092 210.36V205.12C128.092 204.004 128.092 202.998 128.092 202.1C128.092 201.203 128.092 200.281 128.092 199.335L129.596 202.185H127.303C126.39 202.185 125.581 202.185 124.878 202.185C124.174 202.185 123.503 202.185 122.864 202.185V198.704H137.286V202.185C136.655 202.185 135.988 202.185 135.284 202.185C134.581 202.185 133.768 202.185 132.846 202.185H130.554L132.07 199.335C132.07 200.281 132.07 201.203 132.07 202.1C132.07 202.998 132.07 204.004 132.07 205.12V210.36C132.07 211.444 132.07 212.422 132.07 213.295C132.07 214.169 132.07 215.07 132.07 216H128.092ZM140.743 216C141.05 215.07 141.37 214.092 141.701 213.065C142.041 212.038 142.36 211.064 142.659 210.142L144.612 204.211C144.96 203.135 145.275 202.169 145.558 201.312C145.841 200.447 146.124 199.577 146.407 198.704H151.55C151.841 199.61 152.124 200.491 152.399 201.348C152.682 202.205 152.997 203.159 153.345 204.211L155.273 210.154C155.589 211.108 155.908 212.09 156.232 213.101C156.563 214.112 156.878 215.078 157.178 216H153.054C152.795 215.078 152.528 214.136 152.253 213.174C151.978 212.204 151.716 211.286 151.465 210.421L149.088 202.088H148.797L146.395 210.336C146.136 211.233 145.861 212.175 145.57 213.162C145.287 214.14 145.012 215.086 144.745 216H140.743ZM144.915 212.386L145.34 209.402H153.066L153.406 212.386H144.915ZM163.733 216C163.733 215.07 163.733 214.169 163.733 213.295C163.733 212.422 163.733 211.444 163.733 210.36V204.49C163.733 203.374 163.733 202.367 163.733 201.47C163.733 200.572 163.733 199.65 163.733 198.704C164.259 198.704 164.878 198.704 165.589 198.704C166.309 198.704 167.077 198.704 167.894 198.704C168.71 198.704 169.535 198.704 170.368 198.704C171.775 198.704 172.963 198.862 173.934 199.177C174.912 199.484 175.652 200.002 176.153 200.73C176.663 201.457 176.918 202.448 176.918 203.701C176.918 204.696 176.719 205.589 176.323 206.382C175.935 207.174 175.308 207.801 174.443 208.262C173.578 208.723 172.446 208.953 171.047 208.953L172.587 207.498L174.941 210.966C175.304 211.5 175.693 212.074 176.105 212.689C176.517 213.295 176.918 213.89 177.306 214.472C177.702 215.046 178.05 215.555 178.349 216H173.825C173.388 215.321 172.968 214.67 172.563 214.047C172.159 213.425 171.767 212.818 171.387 212.228L168.585 207.813L170.95 209.62H166.935V206.77H169.822C170.469 206.77 171.011 206.693 171.447 206.539C171.892 206.378 172.228 206.107 172.454 205.727C172.68 205.347 172.794 204.825 172.794 204.162C172.794 203.669 172.721 203.273 172.575 202.973C172.43 202.666 172.232 202.428 171.981 202.258C171.738 202.088 171.464 201.975 171.156 201.918C170.857 201.862 170.554 201.833 170.247 201.833H164.813L167.651 199.335C167.651 200.313 167.651 201.251 167.651 202.149C167.651 203.038 167.651 204.029 167.651 205.12V210.36C167.651 211.444 167.651 212.422 167.651 213.295C167.651 214.169 167.651 215.07 167.651 216H163.733Z" fill="white"/>
<path d="M110.515 216.315C109.795 216.315 109.055 216.255 108.295 216.133C107.543 216.02 106.836 215.871 106.173 215.685C105.518 215.499 104.984 215.305 104.572 215.102L104.863 211.597C105.421 211.913 106.003 212.183 106.609 212.41C107.224 212.628 107.834 212.798 108.441 212.919C109.055 213.041 109.642 213.101 110.2 213.101C110.757 213.101 111.243 213.032 111.655 212.895C112.067 212.758 112.387 212.551 112.613 212.276C112.84 211.993 112.953 211.63 112.953 211.185C112.953 210.732 112.803 210.36 112.504 210.069C112.213 209.77 111.792 209.511 111.243 209.293C110.693 209.066 110.038 208.844 109.278 208.626C108.227 208.318 107.329 207.963 106.585 207.558C105.841 207.146 105.271 206.62 104.875 205.981C104.487 205.335 104.293 204.506 104.293 203.495C104.293 202.484 104.515 201.595 104.96 200.827C105.405 200.05 106.076 199.444 106.973 199.007C107.871 198.571 109.007 198.352 110.381 198.352C110.923 198.352 111.465 198.389 112.007 198.462C112.548 198.526 113.074 198.615 113.584 198.728C114.101 198.842 114.578 198.971 115.015 199.116C115.451 199.262 115.831 199.416 116.155 199.577L115.852 203.095C115.334 202.771 114.796 202.5 114.238 202.282C113.681 202.064 113.135 201.898 112.601 201.785C112.067 201.672 111.582 201.615 111.146 201.615C110.652 201.615 110.204 201.68 109.799 201.809C109.403 201.938 109.088 202.137 108.853 202.403C108.619 202.67 108.501 203.006 108.501 203.41C108.501 203.806 108.611 204.142 108.829 204.417C109.055 204.684 109.399 204.922 109.86 205.132C110.329 205.335 110.931 205.545 111.667 205.763C113.05 206.176 114.141 206.608 114.942 207.061C115.742 207.506 116.308 208.043 116.64 208.674C116.98 209.305 117.149 210.097 117.149 211.051C117.149 212.111 116.919 213.036 116.458 213.829C115.997 214.613 115.278 215.224 114.299 215.66C113.321 216.097 112.059 216.315 110.515 216.315Z" fill="#EB1E79"/>
<path d="M82.7874 239.168C82.4723 239.168 82.1546 239.142 81.8344 239.091C81.5193 239.041 81.2219 238.975 80.9424 238.893C80.6629 238.807 80.4189 238.71 80.2105 238.604L80.3096 237.422C80.5434 237.554 80.7925 237.671 81.0568 237.773C81.3261 237.869 81.6031 237.945 81.8878 238.001C82.1775 238.052 82.4672 238.078 82.7569 238.078C83.0364 238.078 83.2931 238.047 83.5269 237.986C83.7658 237.92 83.9539 237.803 84.0911 237.635C84.2334 237.463 84.3046 237.213 84.3046 236.888C84.3046 236.675 84.2436 236.499 84.1216 236.362C83.9996 236.225 83.7938 236.1 83.504 235.989C83.2194 235.877 82.8331 235.752 82.3452 235.615C81.9437 235.503 81.5854 235.366 81.2702 235.203C80.9551 235.041 80.7061 234.822 80.5231 234.548C80.3452 234.273 80.2563 233.915 80.2563 233.473C80.2563 232.787 80.4799 232.248 80.9272 231.856C81.3795 231.46 81.9869 231.262 82.7493 231.262C83.0644 231.262 83.3694 231.29 83.6641 231.346C83.9589 231.396 84.2309 231.465 84.4799 231.551C84.729 231.638 84.945 231.729 85.1279 231.826L85.0212 233.008C84.7772 232.855 84.5256 232.731 84.2664 232.634C84.0072 232.532 83.7582 232.461 83.5193 232.421C83.2804 232.375 83.0695 232.352 82.8865 232.352C82.6781 232.352 82.4697 232.382 82.2613 232.443C82.058 232.499 81.8878 232.606 81.7505 232.764C81.6133 232.916 81.5447 233.137 81.5447 233.427C81.5447 233.635 81.593 233.811 81.6895 233.953C81.7861 234.095 81.9538 234.222 82.1927 234.334C82.4316 234.446 82.762 234.563 83.1838 234.685C83.687 234.832 84.1165 234.987 84.4723 235.15C84.8331 235.307 85.1101 235.516 85.3033 235.775C85.4964 236.034 85.593 236.393 85.593 236.85C85.593 237.292 85.4964 237.689 85.3033 238.039C85.1101 238.385 84.8077 238.659 84.396 238.863C83.9843 239.066 83.4481 239.168 82.7874 239.168ZM94.378 239.168C93.8748 239.168 93.4479 239.081 93.0972 238.909C92.7465 238.731 92.4797 238.464 92.2967 238.108C92.1188 237.747 92.0298 237.287 92.0298 236.728C92.0298 236.286 92.0298 235.849 92.0298 235.417C92.0298 234.98 92.0298 234.553 92.0298 234.136C92.0298 233.714 92.0298 233.31 92.0298 232.924C92.0298 232.532 92.0298 232.159 92.0298 231.803C92.0298 231.285 92.0298 230.804 92.0298 230.362C92.0298 229.92 92.0298 229.46 92.0298 228.982L93.2725 228.708C93.2725 229.084 93.2725 229.432 93.2725 229.752C93.2725 230.072 93.2725 230.395 93.2725 230.72C93.2725 231.046 93.2725 231.407 93.2725 231.803V236.431C93.2725 236.975 93.3869 237.384 93.6156 237.658C93.8494 237.933 94.2052 238.07 94.683 238.07C94.871 238.07 95.0769 238.039 95.3005 237.978C95.5241 237.912 95.7224 237.811 95.8952 237.673L96.0019 238.779C95.9003 238.855 95.763 238.924 95.5902 238.985C95.4174 239.041 95.2268 239.084 95.0184 239.114C94.81 239.15 94.5966 239.168 94.378 239.168ZM90.5737 232.436V231.437H95.9257V232.436C95.4174 232.436 94.9041 232.436 94.3856 232.436C93.8723 232.436 93.3717 232.436 92.8837 232.436H92.3653H90.5737ZM103.857 239.168C103.054 239.168 102.467 238.936 102.096 238.474C101.725 238.011 101.539 237.341 101.539 236.461C101.539 236.126 101.539 235.836 101.539 235.592C101.539 235.343 101.539 235.099 101.539 234.86C101.539 234.408 101.539 233.994 101.539 233.618C101.539 233.236 101.539 232.87 101.539 232.52C101.539 232.169 101.539 231.808 101.539 231.437L102.797 231.384C102.797 231.943 102.797 232.492 102.797 233.03C102.797 233.569 102.797 234.136 102.797 234.731V236.164C102.797 236.764 102.906 237.221 103.125 237.536C103.344 237.846 103.732 238.001 104.291 238.001C104.617 238.001 104.914 237.933 105.183 237.795C105.453 237.653 105.699 237.468 105.923 237.239C106.147 237.01 106.35 236.756 106.533 236.476V234.731C106.533 234.136 106.533 233.577 106.533 233.053C106.533 232.53 106.533 231.991 106.533 231.437H107.791C107.791 231.991 107.791 232.535 107.791 233.069C107.791 233.602 107.791 234.199 107.791 234.86V235.661C107.791 236.286 107.791 236.858 107.791 237.376C107.791 237.895 107.791 238.436 107.791 239H106.693L106.647 237.666H106.51C106.352 237.895 106.147 238.126 105.893 238.36C105.643 238.588 105.349 238.781 105.008 238.939C104.668 239.091 104.284 239.168 103.857 239.168ZM116.903 239.168C116.181 239.168 115.581 238.985 115.104 238.619C114.626 238.248 114.268 237.762 114.029 237.163C113.79 236.558 113.67 235.902 113.67 235.196C113.67 234.443 113.797 233.77 114.052 233.175C114.306 232.581 114.674 232.113 115.157 231.773C115.645 231.427 116.235 231.254 116.926 231.254C117.276 231.254 117.597 231.302 117.886 231.399C118.181 231.49 118.44 231.615 118.664 231.773C118.888 231.925 119.073 232.095 119.221 232.283H119.35V231.475C119.35 230.835 119.35 230.215 119.35 229.615C119.35 229.01 119.35 228.418 119.35 227.839L120.608 227.686C120.608 228.301 120.608 228.919 120.608 229.539C120.608 230.154 120.608 230.799 120.608 231.475V235.661C120.608 236.286 120.608 236.858 120.608 237.376C120.608 237.895 120.608 238.436 120.608 239H119.51L119.449 237.963H119.327C119.129 238.222 118.908 238.441 118.664 238.619C118.42 238.797 118.151 238.931 117.856 239.023C117.566 239.119 117.248 239.168 116.903 239.168ZM117.284 238.039C117.599 238.039 117.884 237.991 118.138 237.895C118.392 237.793 118.618 237.651 118.816 237.468C119.02 237.285 119.198 237.064 119.35 236.804V233.442C119.193 233.213 119.005 233.023 118.786 232.87C118.573 232.713 118.339 232.596 118.085 232.52C117.83 232.438 117.571 232.398 117.307 232.398C116.773 232.398 116.334 232.525 115.988 232.779C115.642 233.033 115.383 233.374 115.21 233.8C115.043 234.222 114.959 234.69 114.959 235.203C114.959 235.696 115.04 236.159 115.203 236.591C115.365 237.018 115.617 237.366 115.958 237.635C116.298 237.905 116.74 238.039 117.284 238.039ZM126.992 239C126.992 238.436 126.992 237.895 126.992 237.376C126.992 236.858 126.992 236.286 126.992 235.661V234.898C126.992 234.446 126.992 234.029 126.992 233.648C126.992 233.262 126.992 232.891 126.992 232.535C126.992 232.174 126.992 231.808 126.992 231.437L128.257 231.391C128.257 231.767 128.257 232.138 128.257 232.504C128.257 232.865 128.257 233.241 128.257 233.633C128.257 234.019 128.257 234.441 128.257 234.898V235.661C128.257 236.286 128.257 236.858 128.257 237.376C128.257 237.895 128.257 238.436 128.257 239H126.992ZM127.601 229.691C127.327 229.691 127.103 229.615 126.931 229.462C126.758 229.31 126.671 229.076 126.671 228.761C126.671 228.451 126.758 228.22 126.931 228.067C127.103 227.91 127.332 227.831 127.617 227.831C127.896 227.831 128.12 227.912 128.288 228.075C128.455 228.232 128.539 228.461 128.539 228.761C128.539 229.076 128.455 229.31 128.288 229.462C128.12 229.615 127.891 229.691 127.601 229.691ZM138.128 239.168C137.502 239.168 136.951 239.061 136.473 238.848C136.001 238.629 135.604 238.334 135.284 237.963C134.964 237.592 134.72 237.168 134.552 236.69C134.389 236.207 134.308 235.701 134.308 235.173C134.308 234.415 134.461 233.745 134.765 233.16C135.076 232.57 135.513 232.105 136.077 231.765C136.646 231.424 137.322 231.254 138.105 231.254C138.71 231.254 139.246 231.353 139.713 231.551C140.181 231.75 140.577 232.027 140.903 232.382C141.228 232.738 141.475 233.155 141.642 233.633C141.81 234.105 141.894 234.619 141.894 235.173C141.894 235.92 141.741 236.596 141.436 237.201C141.131 237.806 140.697 238.286 140.133 238.642C139.574 238.992 138.905 239.168 138.128 239.168ZM138.128 238.07C138.682 238.07 139.142 237.933 139.508 237.658C139.874 237.384 140.148 237.025 140.331 236.583C140.514 236.141 140.605 235.671 140.605 235.173C140.605 234.604 140.504 234.108 140.3 233.686C140.097 233.264 139.81 232.936 139.439 232.703C139.068 232.469 138.628 232.352 138.12 232.352C137.571 232.352 137.109 232.476 136.732 232.726C136.356 232.975 136.072 233.313 135.879 233.739C135.691 234.166 135.596 234.644 135.596 235.173C135.596 235.671 135.688 236.141 135.871 236.583C136.059 237.025 136.341 237.384 136.717 237.658C137.093 237.933 137.563 238.07 138.128 238.07Z" fill="white"/>
<defs>
<filter id="filter0_f" x="0" y="0" width="230" height="230" filterUnits="userSpaceOnUse" color-interpolation-filters="sRGB">
<feFlood flood-opacity="0" result="BackgroundImageFix"/>
<feBlend mode="normal" in="SourceGraphic" in2="BackgroundImageFix" result="shape"/>
<feGaussianBlur stdDeviation="40" result="effect1_foregroundBlur"/>
</filter>
</defs>
</svg>
