<svg width="32" height="32" viewBox="0 0 32 32" fill="none" xmlns="http://www.w3.org/2000/svg">
<g clip-path="url(#clip0_202_295)">
<path fill-rule="evenodd" clip-rule="evenodd" d="M16 0C24.8375 0 32 7.1625 32 16C32 24.8375 24.8375 32 16 32C7.1625 32 0 24.8375 0 16C0 7.1625 7.1625 0 16 0Z" fill="url(#paint0_radial_202_295)"/>
<path d="M10.1687 12.3562C13.3875 9.21248 18.6125 9.21248 21.8312 12.3562L22.2187 12.7375C22.3812 12.8937 22.3812 13.15 22.2187 13.3062L20.8937 14.6C20.8125 14.6812 20.6812 14.6812 20.6 14.6L20.0687 14.0812C17.8187 11.8875 14.1812 11.8875 11.9312 14.0812L11.3625 14.6375C11.2812 14.7187 11.15 14.7187 11.0687 14.6375L9.74375 13.3437C9.58125 13.1875 9.58125 12.9312 9.74375 12.775L10.1687 12.3562ZM24.575 15.0312L25.7562 16.1812C25.9187 16.3375 25.9187 16.5937 25.7562 16.75L20.4375 21.9437C20.275 22.1 20.0125 22.1 19.8562 21.9437L16.0812 18.2562C16.0437 18.2187 15.975 18.2187 15.9375 18.2562L12.1625 21.9437C12 22.1 11.7375 22.1 11.5812 21.9437L6.24375 16.75C6.08125 16.5937 6.08125 16.3375 6.24375 16.1812L7.425 15.0312C7.5875 14.875 7.85 14.875 8.00625 15.0312L11.7812 18.7187C11.8187 18.7562 11.8875 18.7562 11.925 18.7187L15.7 15.0312C15.8625 14.875 16.125 14.875 16.2812 15.0312L20.0562 18.7187C20.0937 18.7562 20.1625 18.7562 20.2 18.7187L23.975 15.0312C24.15 14.875 24.4125 14.875 24.575 15.0312Z" fill="white"/>
</g>
<defs>
<radialGradient id="paint0_radial_202_295" cx="0" cy="0" r="1" gradientUnits="userSpaceOnUse" gradientTransform="translate(9.91821e-05 16.0005) scale(32)">
<stop stop-color="#5D9DF6"/>
<stop offset="1" stop-color="#006FFF"/>
</radialGradient>
<clipPath id="clip0_202_295">
<rect width="32" height="32" fill="white"/>
</clipPath>
</defs>
</svg>
