<svg width="32" height="35" viewBox="0 0 32 35" fill="none" xmlns="http://www.w3.org/2000/svg">
<path d="M8.29973 2.52487C4.16708 3.63713 0.683052 4.60088 0.557654 4.6665C0.432182 4.73218 0.26165 4.88946 0.178644 5.01598C0.0297519 5.24312 0.0275286 5.34141 0.00522072 12.6514C-0.0102688 17.7186 0.00848161 20.2874 0.0645106 20.7873C0.16308 21.666 0.340876 22.3197 0.697578 23.1152C2.07844 26.1945 5.55142 29.2511 11.1038 32.2737C12.38 32.9685 15.0625 34.2414 15.61 34.412C15.9867 34.5293 16.0114 34.5293 16.3881 34.412C16.9356 34.2414 19.6181 32.9685 20.8943 32.2737C25.8392 29.5817 29.0125 26.9676 30.7661 24.1413C31.1193 23.5721 31.5325 22.6424 31.7093 22.0194C31.9961 21.0086 32.0164 20.3389 31.9929 12.6514C31.9706 5.34141 31.9683 5.24312 31.8194 5.01598C31.7364 4.88946 31.7107 4.8079 31.4405 4.6665C31.1703 4.5251 16.2195 0.496217 15.9789 0.500003C15.8881 0.501464 12.4325 1.41262 8.29973 2.52487Z" fill="url(#paint0_linear_217_96)"/>
<path fill-rule="evenodd" clip-rule="evenodd" d="M4.12427 10.1961L8.97478 8.83097L7.84905 4.84673L10.2736 4.16172L11.3635 8.01896L13.2776 7.47816L12.1878 3.6209L14.6274 2.93164L15.7596 6.87435C15.9312 6.82586 16.1049 6.77375 16.2802 6.72115C17.1455 6.46152 18.0501 6.19007 18.9442 6.28368C22.0334 6.60722 24.7984 11.3387 22.086 13.7204C21.9873 13.8071 21.9116 13.8959 21.9178 13.9178C21.924 13.9398 22.0883 13.9538 22.2829 13.949C25.9229 13.8594 27.9202 18.5802 26.2278 21.5748C25.1413 23.4974 22.9147 24.6036 20.8773 25.1103L22.0067 29.1079L19.5821 29.7929L18.4653 25.84L16.5512 26.3808L17.668 30.3337L15.2434 31.0187L14.1086 27.002L9.26183 28.3714L8.44224 25.4705L11.5344 24.5968C11.4564 24.3172 11.3778 24.0354 11.2987 23.7516C10.223 19.8943 9.04689 15.677 7.94355 11.8894L4.84961 12.7635L4.12427 10.1961ZM18.5267 11.6696C18.1274 10.2562 16.8645 9.56501 14.5518 10.2198L12.2391 10.8746L13.597 15.6808L13.8363 15.6132C13.9305 15.5865 14.031 15.5587 14.1365 15.5295C15.9343 15.0318 19.2197 14.1223 18.5267 11.6696ZM16.4842 23.2067C18.6082 22.6484 22.509 21.623 21.7835 18.9474C20.9554 15.8934 16.1267 17.1536 14.2925 18.1476L15.8093 23.3891C16.0015 23.3336 16.2302 23.2735 16.4842 23.2067Z" fill="white"/>
<defs>
<linearGradient id="paint0_linear_217_96" x1="18.0498" y1="-12.0093" x2="-7.17955" y2="16.1262" gradientUnits="userSpaceOnUse">
<stop stop-color="#5C8FFF"/>
<stop offset="1" stop-color="#C14BFF"/>
</linearGradient>
</defs>
</svg>
