<svg width="93" height="148" viewBox="0 0 93 148" fill="none" xmlns="http://www.w3.org/2000/svg">
<path fill-rule="evenodd" clip-rule="evenodd" d="M68.3318 25.2786H24.9902C30.6365 14.1845 38.51 5.27712 46.6556 0.833984L46.661 0.837215L46.6664 0.833984C54.812 5.27712 62.6856 14.1845 68.3318 25.2786Z" fill="url(#paint0_radial_462_617)"/>
<path fill-rule="evenodd" clip-rule="evenodd" d="M36.3869 119.971H57.9656C59.3663 125.906 59.1657 130.191 58.423 133.028C56.7806 139.304 52.1057 144.846 47.1786 147.028L47.1763 147.027L47.174 147.028C42.2468 144.846 37.572 139.304 35.9295 133.028C35.1869 130.191 34.9863 125.906 36.3869 119.971Z" fill="url(#paint1_radial_462_617)"/>
<path fill-rule="evenodd" clip-rule="evenodd" d="M20.4347 90.7158C11.5882 97.0748 4.57448 106.563 0.530122 117.855C-0.753549 121.439 3.62632 124.08 6.83869 122.037C12.805 118.242 19.5223 115.28 26.762 113.347C24.0371 105.136 21.9673 97.6014 20.4347 90.7158ZM66.549 113.381C69.2681 105.191 71.3355 97.674 72.8684 90.8023C81.6582 97.1606 88.6268 106.614 92.6529 117.855C93.9366 121.439 89.5567 124.08 86.3443 122.037C80.4132 118.264 73.7399 115.314 66.549 113.381Z" fill="url(#paint2_radial_462_617)"/>
<path fill-rule="evenodd" clip-rule="evenodd" d="M18.1563 44.5439C19.604 37.7307 21.9813 31.1939 24.9918 25.2788H68.3334C71.3439 31.1939 73.7212 37.7307 75.1689 44.5439C77.9226 57.5027 77.736 80.1368 66.2031 114.421C64.3357 119.972 61.7821 119.972 59.0281 119.972H58.4106H34.9146H34.297C31.543 119.972 28.9895 119.972 27.1221 114.421C15.5892 80.1368 15.4026 57.5027 18.1563 44.5439ZM47 59C53.0751 59 58 54.299 58 48.5C58 42.701 53.0751 38 47 38C40.9249 38 36 42.701 36 48.5C36 54.299 40.9249 59 47 59Z" fill="url(#paint3_radial_462_617)"/>
<defs>
<radialGradient id="paint0_radial_462_617" cx="0" cy="0" r="1" gradientUnits="userSpaceOnUse" gradientTransform="translate(24.3481 0.833984) rotate(29.0195) scale(51.0327 37.7954)">
<stop stop-color="#30333E"/>
<stop offset="1" stop-color="#2B2E37"/>
</radialGradient>
<radialGradient id="paint1_radial_462_617" cx="0" cy="0" r="1" gradientUnits="userSpaceOnUse" gradientTransform="translate(35.0012 119.971) rotate(48.375) scale(36.6579 31.7784)">
<stop stop-color="#30333E"/>
<stop offset="1" stop-color="#2B2E37"/>
</radialGradient>
<radialGradient id="paint2_radial_462_617" cx="0" cy="0" r="1" gradientUnits="userSpaceOnUse" gradientTransform="translate(-1.07079 90.7158) rotate(18.7957) scale(100.694 53.6214)">
<stop stop-color="#30333E"/>
<stop offset="1" stop-color="#2B2E37"/>
</radialGradient>
<radialGradient id="paint3_radial_462_617" cx="0" cy="0" r="1" gradientUnits="userSpaceOnUse" gradientTransform="translate(15.8034 25.2788) rotate(57.2359) scale(114.044 90.6103)">
<stop stop-color="#30333E"/>
<stop offset="1" stop-color="#2B2E37"/>
</radialGradient>
</defs>
</svg>
