<svg width="145" height="50" viewBox="0 0 145 50" fill="none" xmlns="http://www.w3.org/2000/svg">
<g clip-path="url(#clip0_203_1330)">
<path d="M40.6052 27.0987C40.6052 27.3515 40.3934 27.5573 40.1405 27.5573H31.1861C31.4097 29.7678 33.0746 31.7843 35.4162 31.7843C37.0164 31.7843 38.2049 31.1729 39.0991 29.8972C39.2285 29.7208 39.4227 29.6091 39.6698 29.7149C39.8051 29.7737 39.8992 29.8972 39.9228 30.0382C39.9463 30.1852 39.9051 30.2675 39.8639 30.3498C38.9638 31.9196 37.1694 32.6897 35.4103 32.6897C32.3981 32.6897 30.2507 29.9971 30.2507 27.1163C30.2507 24.2356 32.3981 21.5429 35.4103 21.5429C38.4225 21.537 40.5993 24.2238 40.6052 27.0987ZM39.6463 26.6636C39.4521 24.4531 37.7577 22.4366 35.4162 22.4366C33.0746 22.4366 31.4097 24.4531 31.1861 26.6636H39.6463ZM51.4716 21.7605C51.7305 21.7605 51.9188 21.9839 51.9188 22.2073C51.9188 22.4659 51.7246 22.6541 51.4716 22.6541H49.0713V32.0665C49.0713 32.29 48.8771 32.5134 48.6241 32.5134C48.3653 32.5134 48.177 32.29 48.177 32.0665V22.6541H45.8708C45.6119 22.6541 45.4236 22.4601 45.4236 22.2073C45.4236 21.9839 45.6178 21.7605 45.8708 21.7605H48.177V18.3153C48.177 18.0978 48.3241 17.8979 48.5359 17.8626C48.8359 17.8156 49.0713 18.0213 49.0713 18.3035V21.7605H51.4716ZM66.1151 26.3109V32.0136C66.1151 32.2723 65.8915 32.4604 65.668 32.4604C65.4091 32.4604 65.2208 32.2664 65.2208 32.0136V26.3109C65.2208 24.3884 64.1324 22.4659 61.985 22.4659C59.2317 22.4659 58.0432 24.8705 58.2021 27.3339C58.2021 27.3985 58.2315 27.6866 58.2315 27.716V31.996C58.2315 32.2135 58.0844 32.4134 57.8726 32.4487C57.5726 32.4957 57.3373 32.29 57.3373 32.0078V13.2769C57.3373 13.0535 57.5314 12.8301 57.7844 12.8301C58.0432 12.8301 58.2315 13.0535 58.2315 13.2769V23.8769C59.0022 22.5012 60.3789 21.5723 61.9792 21.5723C64.609 21.5723 66.1151 23.8769 66.1151 26.3109ZM82.1705 27.0987C82.1705 27.3515 81.9587 27.5573 81.7058 27.5573H72.7455C72.9691 29.7678 74.6341 31.7843 76.9756 31.7843C78.5759 31.7843 79.7643 31.1729 80.6585 29.8972C80.788 29.7208 80.9821 29.6091 81.2292 29.7149C81.3645 29.7737 81.4587 29.8972 81.4822 30.0382C81.5057 30.1852 81.4646 30.2675 81.4234 30.3498C80.5232 31.9196 78.7288 32.6897 76.9697 32.6897C73.9575 32.6897 71.8101 29.9971 71.8101 27.1163C71.8101 24.2356 73.9575 21.5429 76.9697 21.5429C79.9879 21.537 82.1647 24.2238 82.1705 27.0987ZM81.2057 26.6636C81.0115 24.4531 79.3172 22.4366 76.9756 22.4366C74.6341 22.4366 72.9691 24.4531 72.7455 26.6636H81.2057ZM93.1605 22.1779C93.1605 22.4659 93.0016 22.6247 92.7428 22.66C90.113 23.0421 88.9304 25.188 88.9304 27.6866V31.9666C88.9304 32.1841 88.7833 32.384 88.5715 32.4193C88.2715 32.4663 88.0362 32.2606 88.0362 31.9784V22.2249C88.0362 22.0074 88.1833 21.8075 88.395 21.7722C88.6951 21.7252 88.9304 21.931 88.9304 22.2131V24.2003C89.6658 22.9539 91.1425 21.7663 92.6781 21.7663C92.9016 21.7605 93.1605 21.9251 93.1605 22.1779ZM107.869 27.0987C107.869 27.3515 107.657 27.5573 107.404 27.5573H98.4496C98.6731 29.7678 100.338 31.7843 102.68 31.7843C104.28 31.7843 105.468 31.1729 106.363 29.8972C106.492 29.7208 106.686 29.6091 106.933 29.7149C107.069 29.7737 107.163 29.8972 107.186 30.0382C107.21 30.1852 107.169 30.2675 107.127 30.3498C106.227 31.9196 104.433 32.6897 102.674 32.6897C99.6615 32.6897 97.5141 29.9971 97.5141 27.1163C97.5141 24.2356 99.6615 21.5429 102.674 21.5429C105.686 21.537 107.863 24.2238 107.869 27.0987ZM106.91 26.6636C106.716 24.4531 105.021 22.4366 102.68 22.4366C100.338 22.4366 98.6731 24.4531 98.4496 26.6636H106.91ZM122.324 22.2896V32.0665C122.324 32.3252 122.1 32.5134 121.877 32.5134C121.618 32.5134 121.43 32.3193 121.43 32.0665V30.2087C120.694 31.6844 119.376 32.7368 117.711 32.7368C115.052 32.7368 113.575 30.4321 113.575 27.9982V22.2661C113.575 22.0426 113.77 21.8192 114.023 21.8192C114.281 21.8192 114.47 22.0426 114.47 22.2661V27.9982C114.47 29.9207 115.558 31.8431 117.706 31.8431C120.718 31.8431 121.424 29.027 121.424 25.917V22.2661C121.424 22.0074 121.683 21.7428 122 21.8369C122.194 21.9016 122.324 22.0897 122.324 22.2896ZM144.974 26.2756V32.0078C144.974 32.2664 144.751 32.4546 144.527 32.4546C144.268 32.4546 144.08 32.2606 144.08 32.0078V26.2756C144.08 24.3531 142.992 22.4659 140.844 22.4659C138.15 22.4659 137.126 25.3467 137.126 27.5867V32.0078C137.126 32.2664 136.903 32.4546 136.679 32.4546C136.42 32.4546 136.232 32.2606 136.232 32.0078V26.2756C136.232 24.3531 135.144 22.4659 132.996 22.4659C130.272 22.4659 129.148 24.6118 129.248 27.4632C129.248 27.5279 129.278 27.6572 129.248 27.6866V31.996C129.248 32.2135 129.101 32.4134 128.884 32.4487C128.584 32.4957 128.348 32.29 128.348 32.0078V22.2249C128.348 22.0074 128.495 21.8075 128.707 21.7722C129.007 21.7252 129.243 21.931 129.243 22.2131V23.8475C130.013 22.4718 131.39 21.5723 132.99 21.5723C134.814 21.5723 136.226 22.7246 136.803 24.4237C137.538 22.7599 138.979 21.5723 140.839 21.5723C143.468 21.5723 144.974 23.8417 144.974 26.2756Z" fill="#808191"/>
<g opacity="0.6">
<path opacity="0.6" d="M10.6011 20.8574L0.828796 25.2978L10.6011 31.066L20.3697 25.2978L10.6011 20.8574Z" fill="#808191"/>
</g>
<g opacity="0.45">
<path opacity="0.45" d="M0.828796 25.2971L10.6011 31.0654V9.09766L0.828796 25.2971Z" fill="#808191"/>
</g>
<g opacity="0.8">
<path opacity="0.8" d="M10.6022 9.09766V31.0654L20.3707 25.2971L10.6022 9.09766Z" fill="#808191"/>
</g>
<g opacity="0.45">
<path opacity="0.45" d="M0.828796 27.1465L10.6011 40.9012V32.9147L0.828796 27.1465Z" fill="#808191"/>
</g>
<g opacity="0.8">
<path opacity="0.8" d="M10.6022 32.9147V40.9012L20.3784 27.1465L10.6022 32.9147Z" fill="#808191"/>
</g>
</g>
<defs>
<clipPath id="clip0_203_1330">
<rect width="144.144" height="50" fill="white" transform="translate(0.828796)"/>
</clipPath>
</defs>
</svg>
