<svg width="119" height="50" viewBox="0 0 119 50" fill="none" xmlns="http://www.w3.org/2000/svg">
<g clip-path="url(#clip0_203_1344)">
<path d="M33.7151 12.9299H39.1128C40.4844 12.9299 41.4872 13.2983 42.1361 13.932C42.7703 14.4773 43.0505 15.2142 43.0505 15.9364C43.0505 16.2164 43.0505 16.5701 42.962 16.8501C42.785 17.307 42.5048 17.7638 42.1361 18.1323C41.9591 18.3091 41.7674 18.4123 41.5904 18.5007C42.2246 18.6776 42.785 19.046 43.2422 19.5029C43.6109 19.9598 43.7879 20.5051 43.7879 21.3304C43.7879 21.7872 43.6994 22.3325 43.5076 22.701C43.3307 23.0694 42.962 23.4379 42.5933 23.7032C42.1361 23.9832 41.6789 24.16 41.2217 24.3369C40.6761 24.5137 40.0272 24.5137 39.393 24.5137H33.8036V12.9004H33.7151V12.9299ZM38.6556 17.6754C39.1128 17.6754 39.57 17.587 40.0272 17.3954C40.3959 17.2185 40.5728 16.8501 40.5728 16.4817C40.5728 16.1132 40.3959 15.7448 40.1157 15.5679C39.747 15.2879 39.2898 15.1995 38.8326 15.2879H36.2665V17.7491H38.6409V17.6754H38.6556ZM39.2898 22.3473C39.747 22.3473 40.2042 22.2589 40.6613 22.0673C41.03 21.8904 41.207 21.522 41.1185 21.0651C41.1185 20.6967 40.9415 20.3282 40.6613 20.1514C40.3811 19.9745 39.8355 19.7829 39.2013 19.7829H36.178V22.3473H39.2898Z" fill="#808191"/>
<path d="M46.9651 12.9297H49.5313V24.6315H46.9651V12.9297Z" fill="#808191"/>
<path d="M53.4808 12.9297H55.8552L61.3413 20.1512V12.9297H63.8927V24.6315H61.71L55.9436 17.2184V24.6315H53.4808V12.9297Z" fill="#808191"/>
<path d="M71.6738 12.8418H74.0482L79.0772 24.632H76.4226L75.3312 21.9792H70.3908L69.2994 24.632H66.6448L71.6738 12.8418ZM74.4169 19.7833L72.8684 15.9515L71.3199 19.7833H74.4169Z" fill="#808191"/>
<path d="M81.8245 12.9297H84.1989L89.6851 20.1512V12.9297H92.2512V24.6315H90.0538L84.3759 17.2184V24.6315H81.8245V12.9297Z" fill="#808191"/>
<path d="M101.567 24.8074C100.741 24.8074 99.9155 24.6306 99.1929 24.3506C97.7329 23.7168 96.6268 22.6115 95.9926 21.1525C95.7124 20.4156 95.5355 19.605 95.5355 18.7797C95.5355 17.2322 96.1696 15.67 97.2757 14.491C97.8214 13.9457 98.4703 13.4888 99.1929 13.2088C100.019 12.8404 100.845 12.752 101.656 12.752C102.113 12.752 102.659 12.752 103.116 12.8404C103.573 12.9288 103.942 13.0172 104.31 13.2088C104.679 13.3857 105.048 13.5773 105.313 13.7541C105.593 13.931 105.947 14.211 106.228 14.491L104.679 16.4069C104.222 16.0385 103.765 15.67 103.308 15.4047C102.85 15.1395 102.305 15.0363 101.759 15.0363C101.302 15.0363 100.845 15.1247 100.387 15.3163C99.9303 15.4932 99.5616 15.7732 99.2961 16.1416C99.0307 16.5101 98.7505 16.8785 98.5587 17.3354C98.3818 17.7923 98.2785 18.2491 98.2785 18.706C98.2785 19.1629 98.367 19.7082 98.5587 20.165C98.7505 20.6219 98.9274 20.9903 99.2961 21.3588C99.9303 22.0957 100.845 22.4494 101.759 22.4494C102.305 22.4494 102.954 22.361 103.499 22.0809C103.956 21.8009 104.502 21.4472 104.871 21.0788L106.508 22.7147C106.228 22.9947 105.874 23.3484 105.593 23.6284C105.225 23.9084 104.856 24.0853 104.502 24.2621C104.133 24.439 103.676 24.6306 103.219 24.719C102.57 24.8074 102.024 24.8074 101.567 24.8074Z" fill="#808191"/>
<path d="M109.442 12.9297H118.217V15.214H111.905V17.5868H117.479V19.8712H111.905V22.3471H118.305V24.6315H109.442V12.9297Z" fill="#808191"/>
<path d="M37.0003 36.1418C36.3661 36.1418 35.7172 36.0534 35.1716 35.7734C34.6259 35.5965 34.0803 35.2281 33.5198 34.7712L34.4342 33.769C34.8029 34.1375 35.1716 34.3143 35.6288 34.5943C36.0859 34.7712 36.5431 34.8744 37.0003 34.8744C37.369 34.8744 37.7377 34.7859 38.0916 34.5943C38.3718 34.4175 38.4603 34.1375 38.4603 33.8575C38.4603 33.769 38.4603 33.5774 38.3718 33.489C38.2834 33.4006 38.1949 33.209 38.0916 33.1206C37.9147 33.0321 37.7229 32.9437 37.546 32.8406C37.2658 32.7521 36.9118 32.6637 36.6316 32.5605C36.2629 32.4721 35.8057 32.3837 35.437 32.1921C35.1568 32.1037 34.8029 31.9121 34.6112 31.7352C34.4342 31.5584 34.2425 31.3668 34.0655 31.1015C33.8885 30.7331 33.8885 30.3646 33.8885 30.0993C33.8885 29.7309 33.977 29.4656 34.0655 29.0972C34.154 28.8172 34.4342 28.5519 34.6112 28.3603C34.8914 28.1834 35.1568 27.9918 35.5255 27.9034C35.8942 27.815 36.2629 27.7266 36.6169 27.7266C37.1625 27.7266 37.7082 27.815 38.2686 28.0066C38.7258 28.1834 39.183 28.4634 39.6401 28.7435L38.9028 29.8341C38.5341 29.554 38.1654 29.3772 37.8114 29.2003C37.4427 29.0235 37.074 29.0235 36.7201 29.0235C36.3514 29.0235 35.9827 29.1119 35.7172 29.3035C35.5403 29.4804 35.3486 29.7604 35.3486 30.0404C35.3486 30.2172 35.3486 30.3204 35.437 30.4973C35.5255 30.5857 35.614 30.7773 35.7172 30.8657C35.8942 30.9541 36.0859 31.0426 36.3514 31.1457C36.6316 31.2341 36.8971 31.3226 37.3542 31.4257C37.7229 31.5142 38.0916 31.6026 38.5488 31.7942C38.829 31.8826 39.0945 32.0742 39.3747 32.251C39.5517 32.4279 39.7434 32.7079 39.8319 32.8848C39.9204 33.1648 40.0088 33.4301 40.0088 33.7985C40.0088 34.167 39.9204 34.5354 39.8319 34.8007C39.6549 35.0807 39.4632 35.346 39.1977 35.626C38.9175 35.8028 38.652 35.9944 38.2834 36.0829C37.8262 36.0534 37.369 36.1418 37.0003 36.1418Z" fill="#808191"/>
<path d="M41.5745 27.8301H43.1378L45.6007 31.6619L48.1668 27.8301H49.7153V36.0537H48.2552V30.1144L45.6891 33.9462H45.6007L43.0493 30.1144V36.0537H41.5745V27.8301Z" fill="#808191"/>
<path d="M54.66 27.7402H56.0315L59.6005 35.9639H58.052L57.2261 33.9596H53.3917L52.5658 35.9639H51.1058L54.66 27.7402ZM56.7689 32.7658L55.3089 29.4793L53.9373 32.7658H56.7689Z" fill="#808191"/>
<path d="M61.0536 27.8301H64.7111C65.1682 27.8301 65.6254 27.9185 66.0826 28.0069C66.4513 28.0954 66.82 28.3754 67.0855 28.6407C67.2624 28.8175 67.4542 29.0975 67.6311 29.466C67.7196 29.746 67.8081 30.0997 67.8081 30.4681C67.8081 30.7481 67.7196 31.1019 67.6311 31.3819C67.5426 31.6619 67.3509 31.8387 67.2624 32.1188C67.0855 32.2956 66.8937 32.4872 66.6283 32.6641C66.3481 32.8409 66.0826 32.9441 65.8024 33.0325L67.9998 36.1422H66.2596L64.2539 33.3125H62.4252V36.1422H60.9651L61.0536 27.8301ZM64.6226 31.8535C65.0798 31.8535 65.5369 31.7651 65.8171 31.485C66.0974 31.205 66.2743 30.8513 66.2743 30.4829C66.2743 30.1144 66.0974 29.746 65.8171 29.4807C65.4485 29.2007 64.9913 29.1123 64.5341 29.1123H62.4252V31.8535H64.6226Z" fill="#808191"/>
<path d="M71.5729 29.1123H68.9183V27.8301H75.599V29.1123H72.9444V36.0537H71.4844L71.5729 29.1123Z" fill="#808191"/>
<path d="M84.4762 36.1415C83.9305 36.1415 83.3849 36.053 82.8244 35.773C81.8216 35.3161 80.9957 34.5793 80.627 33.5771C80.4501 33.0318 80.2583 32.4865 80.3468 31.9265C80.3468 31.3812 80.4353 30.8359 80.627 30.2758C80.9957 29.2737 81.8216 28.4484 82.8244 27.9915C83.3701 27.8146 83.9158 27.623 84.5647 27.623C84.9334 27.623 85.3021 27.623 85.5675 27.7115C85.8477 27.7999 86.1132 27.8883 86.3934 27.9915C86.6736 28.0799 86.8506 28.2715 87.1308 28.3599C87.3077 28.5368 87.588 28.7284 87.7649 28.9052L86.8506 29.9958C86.5704 29.7158 86.2164 29.4505 85.8477 29.2589C85.479 29.0821 85.0219 28.9789 84.5647 28.9789C84.196 28.9789 83.8273 29.0673 83.4733 29.1558C83.1046 29.3326 82.8392 29.5242 82.559 29.7895C82.2788 30.0695 82.1018 30.3348 82.0133 30.7032C81.9248 31.0717 81.8363 31.4401 81.8363 31.7938C81.8363 32.1623 81.9248 32.5307 82.0133 32.8844C82.1018 33.2381 82.2935 33.5181 82.559 33.7982C82.8392 34.0782 83.1046 34.255 83.4733 34.4319C83.842 34.6087 84.2107 34.7119 84.5647 34.6087C85.0219 34.6087 85.479 34.5203 85.8477 34.3287C86.2164 34.1519 86.5851 33.8719 86.9391 33.5034L87.8534 34.4171C87.6764 34.594 87.3962 34.874 87.2193 35.0509C86.9391 35.2277 86.7621 35.4193 86.4819 35.5077C86.2017 35.5962 85.9362 35.7878 85.5675 35.7878C85.1988 36.1415 84.8301 36.1415 84.4762 36.1415Z" fill="#808191"/>
<path d="M89.3089 27.8301H90.6804V31.205H94.6181V27.8301H96.0781V36.0537H94.6181V32.5756H90.6804V36.0537H89.3089V27.8301Z" fill="#808191"/>
<path d="M101.113 27.7402H102.485L106.054 35.9639H104.505L103.679 33.9596H99.8448L99.0189 35.9639H97.5589L101.113 27.7402ZM103.134 32.7658L101.762 29.4793L100.39 32.7658H103.134Z" fill="#808191"/>
<path d="M107.512 27.8301H108.987V36.0537H107.512V27.8301Z" fill="#808191"/>
<path d="M111.168 27.8301H112.451L116.846 33.4894V27.8301H118.306V36.0537H117.112L112.643 30.2029V36.0537H111.168V27.8301Z" fill="#808191"/>
<path d="M17.6231 35.5077V39.0742L14.5114 40.9017L11.4881 39.0742V35.5077L14.5114 37.3352L17.6231 35.5077ZM0.972961 23.1722L3.99625 24.9997V31.1158L9.2022 34.2255V37.792L0.972961 32.9433V23.1722ZM28.0498 23.1722V32.9581L19.7321 37.8068V34.2402L24.938 31.1306V25.0144L28.0498 23.1722ZM19.7173 18.3235L22.8291 20.151V23.7175L17.6231 26.8272V33.0317L14.5999 34.8592L11.5913 33.0317V26.8124L6.19366 23.7028V20.1362L9.30543 18.3087L14.5114 21.4184L19.7173 18.3235ZM6.19366 26.2671L9.21694 28.0946V31.6611L6.19366 29.8337V26.2671ZM22.8291 26.2671V29.8337L19.8058 31.6611V28.0946L22.8291 26.2671ZM3.99625 15.2138L7.10802 17.0413L3.99625 18.8688V22.4353L0.972961 20.6078V17.0413L3.99625 15.2138ZM25.0265 15.2138L28.1383 17.0413V20.6078L25.0265 22.4353V18.8688L22.0032 17.0413L25.0265 15.2138ZM14.5114 15.2138L17.6231 17.0413L14.5114 18.8688L11.4881 17.0413L14.5114 15.2138ZM14.5114 9.09766L22.8291 13.9464L19.8058 15.7739L14.5999 12.6642L9.29068 15.7739L6.2674 13.9464L14.5114 9.09766Z" fill="#808191"/>
</g>
<defs>
<clipPath id="clip0_203_1344">
<rect width="117.342" height="50" fill="white" transform="translate(0.972961)"/>
</clipPath>
</defs>
</svg>
