<svg id="Layer_1" data-name="Layer 1" xmlns="http://www.w3.org/2000/svg" xmlns:xlink="http://www.w3.org/1999/xlink" viewBox="0 0 84.47 88.04"><defs><style>.cls-1{fill:none;}.cls-2{fill:#efe373;}.cls-3{clip-path:url(#clip-path);}.cls-4{fill:#c99a4b;}.cls-5{fill:#aa8043;}.cls-6{fill:#4d4d4d;}</style><clipPath id="clip-path" transform="translate(-253.04 -93.64)"><rect class="cls-1" x="253.04" y="93.59" width="84.67" height="88.39"/></clipPath></defs><title>rang</title><path class="cls-2" d="M337.51,139.45A42.25,42.25,0,0,1,303,181q-1.78.33-3.61,0.51-2,.2-4.13.2A42.2,42.2,0,0,1,283.56,180h0a42.34,42.34,0,0,1-22.32-15.57,41.52,41.52,0,0,1-2.65-4.06,42.38,42.38,0,0,1-4.69-29.53h0a42.24,42.24,0,0,1,83.6,8.58h0Zm0,0" transform="translate(-253.04 -93.64)"/><g class="cls-3"><path class="cls-4" d="M330.77,133.92L329,136.61l-4.62,6.86-9.2-2.1a2.14,2.14,0,0,0,1.6,2.56l6.32,1.44-0.45.67a4.92,4.92,0,0,1-5,2.09l-14.88-2.71L292,167.83A47,47,0,0,1,283.56,180h0a42.3,42.3,0,0,1-29.65-49.17l26.37-16.5h0l18.55-11.61,13.68,11.8a7.63,7.63,0,0,1,2.6,4.95,7.61,7.61,0,0,0,4.33,6.07l7.39,3.47,3,1.41a2.36,2.36,0,0,1,1,3.45h0Zm0,0" transform="translate(-253.04 -93.64)"/><path class="cls-5" d="M299.13,94.5a1.31,1.31,0,0,0-2.46,0c-2.76,7.05-11.11,16.58-11.11,16.58s8.18,4.17,11.47,3,3.14-16.69,2.11-19.58h0Zm0,0" transform="translate(-253.04 -93.64)"/></g><path class="cls-5" d="M312.61,124.87l-8.74,1.6,7-9.11Zm0,0" transform="translate(-253.04 -93.64)"/><path class="cls-5" d="M330.77,133.91L329,136.61l-4.62,6.86-9.2-2.1a2.14,2.14,0,0,0,1.6,2.56l6.32,1.44-0.45.66a4.92,4.92,0,0,1-5,2.09l-14.89-2.71a18,18,0,0,1,8.76-15.13l7.91-4.71,7.39,3.48,3,1.41a2.36,2.36,0,0,1,1,3.45h0Zm0,0" transform="translate(-253.04 -93.64)"/><path class="cls-6" d="M306.71,123.43l4.1-3.61,1.31,3.45Zm0,0" transform="translate(-253.04 -93.64)"/><path class="cls-6" d="M330.77,133.91L329,136.61a5.91,5.91,0,0,1-2.13-7.55l3,1.41a2.36,2.36,0,0,1,1,3.45h0Zm0,0" transform="translate(-253.04 -93.64)"/><path class="cls-5" d="M280.28,114.37L278,125.77a99.85,99.85,0,0,1-16.77,38.69,41.52,41.52,0,0,1-2.65-4.06,42.38,42.38,0,0,1-4.69-29.53h0Zm0,0" transform="translate(-253.04 -93.64)"/></svg>