<svg width="152" height="50" viewBox="0 0 152 50" fill="none" xmlns="http://www.w3.org/2000/svg">
<g clip-path="url(#clip0_203_1305)">
<path d="M48.3428 13.8418C46.5973 13.8418 44.9152 14.0612 44.2301 14.2467C43.233 14.5271 42.9843 14.9637 42.7966 15.8684L38.8399 34.133C38.7766 34.5062 38.7156 34.8184 38.7156 35.1305C38.7156 36.0353 39.308 36.6256 40.2734 36.6256C41.3338 36.6256 41.7702 35.9403 41.9872 34.8795L43.1086 29.6749C43.8864 29.7676 44.9152 29.8626 46.3803 29.8626C52.8308 29.8626 56.8486 26.3726 56.8486 21.1047C56.8486 16.4904 53.638 13.8418 48.3428 13.8418ZM46.2243 26.8702C45.2272 26.8702 44.4471 26.8385 43.7327 26.7458L45.8196 17.0514C46.473 16.9587 47.4407 16.832 48.4378 16.832C51.8654 16.832 53.6109 18.4538 53.6109 21.1341C53.6086 24.5631 51.1148 26.8702 46.2243 26.8702Z" fill="#808191"/>
<path d="M149.888 30.5564C149.357 30.5564 149.011 30.8681 148.355 31.5841C147.196 32.7678 146.476 33.4206 145.57 33.4206C144.757 33.4206 144.318 32.7678 144.318 31.7084C144.318 31.1166 144.443 30.4005 144.6 29.6235L145.759 24.2067H149.234C150.329 24.2067 150.988 23.5833 150.988 22.4629C150.988 21.8394 150.581 21.3741 149.643 21.3741H146.383L146.947 18.8532C147.01 18.4805 147.071 18.1372 147.071 17.8254C147.071 16.9535 146.476 16.3301 145.506 16.3301C144.473 16.3301 144.005 17.0145 143.785 18.0739L143.064 21.3741H141.592C140.466 21.3741 139.809 21.9976 139.809 23.1179C139.809 23.7414 140.248 24.2067 141.186 24.2067H142.469L141.311 29.5602C141.186 30.152 141.029 31.1166 141.029 32.1127C141.029 34.6336 142.344 36.47 145.161 36.47C146.79 36.47 148.228 35.6614 149.325 34.6946C150.39 33.7617 151.172 32.6097 151.172 31.862C151.172 31.1482 150.608 30.5564 149.888 30.5564Z" fill="#808191"/>
<path d="M78.1714 15.7206C78.1714 14.8202 77.5439 14.2305 76.5731 14.2305C75.5387 14.2305 75.0704 14.9125 74.8498 15.9682L70.9349 33.9894C70.8417 34.3608 70.7781 34.6715 70.7781 34.9821C70.7781 35.8825 71.4056 36.47 72.3445 36.47C73.4107 36.47 73.8791 35.7879 74.0996 34.7322L78.0145 16.7133C78.0782 16.3396 78.1714 16.0312 78.1714 15.7206Z" fill="#808191"/>
<path d="M133.848 21.1186C128.857 21.1186 125.457 26.0489 125.457 30.7318C125.457 30.8195 125.46 30.9073 125.462 30.9928C124.679 32.1742 123.678 33.3983 122.992 33.3983C122.494 33.3983 122.307 32.9325 122.307 32.2192C122.307 31.3506 122.556 29.8924 122.836 28.621L125.426 16.7125C125.489 16.3412 125.55 16.0307 125.55 15.7202C125.55 14.82 124.957 14.2305 123.991 14.2305C122.929 14.2305 122.494 14.9123 122.275 15.9677L120.872 22.417C120.122 21.6429 119.029 21.1141 117.377 21.1141C114.063 21.1141 110.729 23.6501 109.43 27.5409C107.999 31.2178 106.72 33.3938 105.711 33.3938C105.337 33.3938 105.118 33.0833 105.118 32.5567C105.118 31.0063 105.992 27.2236 106.365 25.3941C106.49 24.7123 106.553 24.4332 106.553 24.0304C106.553 22.6668 104.276 21.0533 101.313 21.0533C97.8862 21.0533 94.783 23.2113 93.228 26.4157C90.917 30.4752 88.7961 33.3938 87.7459 33.3938C87.2773 33.3938 87.1211 32.8043 86.9966 32.2462L86.2203 27.9729L90.9917 24.0979C91.4285 23.7266 91.9898 23.1978 91.9898 22.516C91.9898 21.6789 91.4285 21.1208 90.5865 21.1208C89.9618 21.1208 89.4321 21.4921 88.9025 21.9264L81.7296 27.8177L84.1311 16.717C84.1945 16.3457 84.2873 16.0352 84.2873 15.7247C84.2873 14.8245 83.6626 14.235 82.6961 14.235C81.6662 14.235 81.1999 14.9168 80.9804 15.9722L77.0827 33.9879C76.9899 34.3592 76.9265 34.6698 76.9265 34.9803C76.9265 35.8804 77.5512 36.4677 78.486 36.4677C79.5476 36.4677 80.0139 35.7859 80.2334 34.7305L80.7337 32.406L83.6648 30.0499L84.3823 33.6459C84.663 35.0725 85.4122 36.4677 87.3452 36.4677C89.2692 36.4677 90.7834 34.7215 92.2999 32.361C92.7594 34.834 94.5294 36.4677 96.9853 36.4677C99.4502 36.4677 101.134 35.0095 102.225 33.0563V33.1193C102.225 35.1356 103.255 36.4677 105.064 36.4677C106.7 36.4677 108.058 35.4866 109.271 33.4028C109.959 35.2188 111.499 36.4677 113.64 36.4677C116.166 36.4677 117.974 34.9488 119.129 32.8403V33.027C119.129 35.2593 120.251 36.47 122.092 36.47C123.717 36.47 125.097 35.5316 126.277 34.0059C127.173 35.5316 128.78 36.47 130.951 36.47C135.942 36.47 139.341 31.5396 139.341 26.8253C139.339 23.5061 137.311 21.1186 133.848 21.1186ZM102.753 27.4149C101.847 31.2898 99.9142 33.4929 97.73 33.4929C96.2633 33.4929 95.4529 32.3767 95.4529 30.7025C95.4529 27.4149 97.8545 23.8797 101.066 23.8797C102.033 23.8797 102.782 24.1587 103.436 24.5615L102.753 27.4149ZM120.125 25.7721C119.126 30.3312 116.849 33.4929 114.355 33.4929C112.983 33.4929 112.171 32.4375 112.171 30.7025C112.171 27.3856 114.48 23.9427 117.567 23.9427C118.753 23.9427 119.656 24.3455 120.313 24.872L120.125 25.7721ZM131.322 33.4929C129.513 33.4929 128.764 32.1899 128.764 30.5472C128.764 27.5386 130.853 24.0979 133.475 24.0979C135.283 24.0979 136.032 25.4009 136.032 27.0436C136.032 30.0814 133.943 33.4929 131.322 33.4929Z" fill="#808191"/>
<path d="M64.6056 21.0723C59.6243 21.0723 56.2312 26.0179 56.2312 30.7152C56.2312 34.0739 58.2553 36.4688 61.7095 36.4688C66.6907 36.4688 70.0839 31.5232 70.0839 26.7943C70.0839 23.4672 68.0598 21.0723 64.6056 21.0723ZM62.0845 33.4848C60.2795 33.4848 59.5317 32.1778 59.5317 30.5301C59.5317 27.5121 61.6169 24.0608 64.2329 24.0608C66.0379 24.0608 66.7856 25.3678 66.7856 27.0156C66.7834 30.0628 64.6982 33.4848 62.0845 33.4848Z" fill="#808191"/>
<path d="M16.9277 15.7073C20.1083 15.7073 22.6867 14.2277 22.6867 12.4025C22.6867 10.5773 20.1083 9.09766 16.9277 9.09766C13.7471 9.09766 11.1687 10.5773 11.1687 12.4025C11.1687 14.2277 13.7471 15.7073 16.9277 15.7073Z" fill="#808191"/>
<path d="M16.9277 40.9026C20.1083 40.9026 22.6867 39.423 22.6867 37.5978C22.6867 35.7726 20.1083 34.293 16.9277 34.293C13.7471 34.293 11.1687 35.7726 11.1687 37.5978C11.1687 39.423 13.7471 40.9026 16.9277 40.9026Z" fill="#808191"/>
<path d="M8.94726 20.3867C10.5362 17.6369 10.5259 14.6588 8.92422 13.7348C7.32259 12.8109 4.73615 14.2909 3.14724 17.0407C1.55833 19.7904 1.56864 22.7686 3.17027 23.6925C4.7719 24.6165 7.35835 23.1364 8.94726 20.3867Z" fill="#808191"/>
<path d="M30.7793 32.9821C32.3682 30.2323 32.3587 27.2547 30.7582 26.3314C29.1577 25.408 26.5721 26.8886 24.9832 29.6383C23.3943 32.3881 23.4037 35.3657 25.0043 36.2891C26.6048 37.2124 29.1904 35.7318 30.7793 32.9821Z" fill="#808191"/>
<path d="M8.92422 36.2886C10.5259 35.3646 10.5362 32.3865 8.94725 29.6368C7.35835 26.887 4.7719 25.4069 3.17027 26.3309C1.56864 27.2549 1.55833 30.233 3.14724 32.9828C4.73615 35.7325 7.32259 37.2126 8.92422 36.2886Z" fill="#808191"/>
<path d="M30.7582 23.6921C32.3587 22.7687 32.3682 19.7911 30.7793 17.0414C29.1904 14.2916 26.6048 12.811 25.0042 13.7344C23.4037 14.6577 23.3943 17.6354 24.9832 20.3851C26.5721 23.1348 29.1577 24.6154 30.7582 23.6921Z" fill="#808191"/>
</g>
<defs>
<clipPath id="clip0_203_1305">
<rect width="150.901" height="50" fill="white" transform="translate(0.270264)"/>
</clipPath>
</defs>
</svg>
