<svg width="171" height="50" viewBox="0 0 171 50" fill="none" xmlns="http://www.w3.org/2000/svg">
<g clip-path="url(#clip0_203_1293)">
<path d="M57.6766 26.5167H64.0967C64.9995 26.5167 65.731 27.2555 65.731 28.1575C65.731 29.0673 64.9995 29.7982 64.0967 29.7982H56.3536C56.2291 29.7982 56.1124 29.8449 56.0268 29.9226L53.6922 31.9366C53.3342 32.2477 53.5521 32.8309 54.019 32.8309H63.7076C63.7076 32.8309 63.7154 32.8309 63.7154 32.8231C63.7154 32.8153 63.7232 32.8153 63.7232 32.8153C63.8477 32.8231 63.9644 32.8309 64.089 32.8309C66.657 32.8309 68.7426 30.7391 68.7426 28.1575C68.7426 25.708 66.8671 23.694 64.4703 23.4996C64.4703 23.4996 64.4625 23.4996 64.4625 23.4919C64.4625 23.4841 64.4625 23.4841 64.4547 23.4841H57.5443C56.6416 23.4841 55.9101 22.7453 55.9101 21.8433C55.9101 20.9335 56.6416 20.2026 57.5443 20.2026H65.2718C65.3963 20.2026 65.5208 20.1559 65.6142 20.0704L67.7854 18.0564C68.1278 17.7376 67.9021 17.1699 67.443 17.1699H57.6766C57.6377 17.1699 57.591 17.1699 57.5521 17.1699C54.984 17.1699 52.8984 19.2617 52.8984 21.8433C52.8984 24.425 54.984 26.5167 57.5521 26.5167C57.591 26.5167 57.6299 26.5167 57.6766 26.5167Z" fill="#808191"/>
<path d="M95.0449 17.1621C94.7647 17.1621 94.5391 17.3876 94.5391 17.6753V32.3254C94.5391 32.6053 94.7647 32.8386 95.0449 32.8386H106.796C106.936 32.8386 107.068 32.7764 107.169 32.6753L108.64 31.0968C108.944 30.7702 108.718 30.2336 108.267 30.2336H98.0098C97.7297 30.2336 97.504 30.0081 97.504 29.7204V17.6675C97.504 17.3876 97.2783 17.1543 96.9982 17.1543H95.0449V17.1621Z" fill="#808191"/>
<path fill-rule="evenodd" clip-rule="evenodd" d="M76.2313 17.1621C76.2313 17.1699 76.2313 17.1699 76.2313 17.1621C74.7294 17.2321 73.5232 18.4374 73.4531 19.9382V29.7904C73.4531 29.8293 73.4531 29.876 73.4531 29.9148C73.4531 31.4778 74.6827 32.7531 76.2313 32.8153H86.8926C88.4335 32.7453 89.6708 31.47 89.6708 29.9148C89.6708 29.876 89.6708 29.8293 89.6708 29.7904V19.9459C89.6086 18.4452 88.4023 17.2321 86.9004 17.1699H76.2313V17.1621ZM78.2235 19.9459C78.2157 19.9459 78.2157 19.9459 78.2235 19.9459C77.2819 19.9848 76.527 20.7469 76.4881 21.6955V27.8931C76.4881 27.9164 76.4881 27.9475 76.4881 27.9708C76.4881 28.9506 77.2585 29.7593 78.2235 29.7982H84.9082C85.8732 29.7593 86.6436 28.9506 86.6436 27.9708C86.6436 27.9475 86.6436 27.9164 86.6436 27.8931V21.6955C86.6047 20.7469 85.8499 19.9926 84.9082 19.9459H78.2235Z" fill="#808191"/>
<path fill-rule="evenodd" clip-rule="evenodd" d="M125.723 32.3255C125.723 32.6054 125.948 32.8387 126.228 32.8387H128.221C128.501 32.8387 128.726 32.6132 128.726 32.3255V20.2026C128.726 20.1637 128.726 20.1171 128.726 20.0782C128.726 18.5152 127.505 17.2399 125.979 17.1777H115.746C115.707 17.1777 115.66 17.1777 115.622 17.1777C114.034 17.1777 112.75 18.4763 112.75 20.086C112.75 20.1249 112.75 20.1715 112.75 20.2104V32.3333C112.75 32.6132 112.976 32.8465 113.256 32.8465H115.248C115.528 32.8465 115.754 32.621 115.754 32.3333V27.2866C115.754 27.0067 115.98 26.7734 116.26 26.7734H125.24C125.52 26.7734 125.746 26.9989 125.746 27.2866V32.3255H125.723ZM115.738 23.9818V21.4623C115.738 20.4826 116.524 19.6894 117.489 19.6894H123.979C124.944 19.6894 125.73 20.4826 125.73 21.4623V23.9818C125.73 24.2617 125.505 24.495 125.225 24.495H116.244C115.964 24.495 115.738 24.2695 115.738 23.9818Z" fill="#808191"/>
<path fill-rule="evenodd" clip-rule="evenodd" d="M167.783 32.8387C167.502 32.8387 167.277 32.6132 167.277 32.3254V27.2788C167.277 26.9988 167.051 26.7656 166.771 26.7656H157.689C157.409 26.7656 157.183 26.9911 157.183 27.2788V32.3254C157.183 32.6054 156.958 32.8387 156.678 32.8387H154.67C154.39 32.8387 154.164 32.6132 154.164 32.3254V20.2026C154.164 20.1637 154.164 20.117 154.164 20.0782C154.164 18.4763 155.464 17.1699 157.067 17.1699C157.106 17.1699 157.152 17.1699 157.191 17.1699H167.534C169.074 17.2399 170.312 18.5152 170.312 20.0704C170.312 20.1093 170.312 20.1559 170.312 20.1948V32.3177C170.312 32.5976 170.086 32.8309 169.806 32.8309H167.783V32.8387ZM157.183 21.4623V23.9817C157.183 24.2617 157.409 24.495 157.689 24.495H166.771C167.051 24.495 167.277 24.2695 167.277 23.9817V21.4623C167.277 20.4825 166.483 19.6894 165.51 19.6894H158.95C157.969 19.6894 157.183 20.4825 157.183 21.4623Z" fill="#808191"/>
<path d="M136.231 17.1621C136.379 17.1621 136.519 17.2243 136.613 17.341L145.546 27.9864C145.85 28.3441 146.433 28.1263 146.433 27.652V17.6753C146.433 17.3954 146.659 17.1621 146.939 17.1621H148.931C149.212 17.1621 149.437 17.3876 149.437 17.6753V32.3254C149.437 32.6053 149.212 32.8386 148.931 32.8386H146.457C146.449 32.8386 146.441 32.8309 146.441 32.8231C146.441 32.8153 146.441 32.8153 146.433 32.8075L137.344 22.2399C137.041 21.8822 136.457 22.1077 136.457 22.5742V32.3332C136.457 32.6131 136.231 32.8464 135.951 32.8464H133.943C133.663 32.8464 133.438 32.6209 133.438 32.3332V17.6753C133.438 17.3954 133.663 17.1621 133.943 17.1621H136.231Z" fill="#808191"/>
<path fill-rule="evenodd" clip-rule="evenodd" d="M6.57062 9.48646C6.81965 9.23763 7.15427 9.09766 7.50446 9.09766H39.9165C40.5079 9.09766 40.8037 9.81305 40.3834 10.2252L33.9788 16.6171C33.7298 16.8659 33.3952 17.0059 33.045 17.0059H0.632954C0.041522 17.0059 -0.254194 16.2905 0.166034 15.8784L6.57062 9.48646ZM6.57062 33.3751C6.81965 33.1263 7.15427 32.9863 7.50446 32.9863H39.9165C40.5079 32.9863 40.8037 33.7017 40.3834 34.1139L33.9788 40.5135C33.7298 40.7624 33.3952 40.9023 33.045 40.9023H0.632954C0.041522 40.9023 -0.254194 40.1869 0.166034 39.7748L6.57062 33.3751ZM33.045 20.9648C33.3952 20.9648 33.7298 21.1048 33.9788 21.3536L40.3834 27.7456C40.8037 28.1577 40.5079 28.8731 39.9165 28.8731H7.50446C7.15427 28.8731 6.81965 28.7331 6.57062 28.4843L0.166034 22.0924C-0.254194 21.6802 0.041522 20.9648 0.632954 20.9648H33.045Z" fill="#808191"/>
</g>
<defs>
<clipPath id="clip0_203_1293">
<rect width="170.27" height="50" fill="white"/>
</clipPath>
</defs>
</svg>
