<svg width="158" height="50" viewBox="0 0 158 50" fill="none" xmlns="http://www.w3.org/2000/svg">
<g clip-path="url(#clip0_203_1318)">
<path d="M42.8271 19.4043H44.5404L49.3394 30.5188H47.0732L46.0364 27.9755H41.2077L40.2005 30.5188H37.9836L42.8271 19.4043ZM45.3452 26.28L43.6319 21.7603L41.8841 26.28H45.3452Z" fill="#808191"/>
<path d="M51.4602 19.4043H53.7412L56.7777 27.803L59.9079 19.4043H62.0458L57.5479 30.5188H55.8347L51.4602 19.4043Z" fill="#808191"/>
<path d="M69.129 19.4043H70.8422L75.6363 30.5188H73.3701L72.3333 27.9755H67.5046L66.4974 30.5188H64.2805L69.129 19.4043ZM71.642 26.28L69.9288 21.7603L68.181 26.28H71.642Z" fill="#808191"/>
<path d="M80.0227 19.4043H82.0026V28.7297H86.7374V30.5188H80.0227V19.4043Z" fill="#808191"/>
<path d="M94.9258 19.4043H96.6391L101.438 30.5188H99.1719L98.1351 27.9755H93.3015L92.2942 30.5188H90.0774L94.9258 19.4043ZM97.4389 26.28L95.7257 21.7603L93.9779 26.28H97.4389Z" fill="#808191"/>
<path d="M105.82 19.4043H108.446L113.843 27.665H113.872V19.4043H115.852V30.5188H113.334L107.829 21.9919H107.799V30.5188H105.82V19.4043Z" fill="#808191"/>
<path d="M129.13 22.0124C128.72 21.5737 128.325 21.278 127.935 21.135C127.56 20.9872 127.175 20.9132 126.79 20.9132C126.212 20.9132 125.689 21.0167 125.215 21.2287C124.756 21.4258 124.356 21.7117 124.02 22.0764C123.684 22.4313 123.423 22.8503 123.235 23.3333C123.057 23.8163 122.969 24.3338 122.969 24.8859C122.969 25.4823 123.057 26.0343 123.235 26.5321C123.423 27.0348 123.684 27.4686 124.02 27.8333C124.356 28.198 124.756 28.4888 125.215 28.6959C125.689 28.9029 126.212 29.0113 126.79 29.0113C127.239 29.0113 127.674 28.9078 128.093 28.6959C128.523 28.4741 128.923 28.129 129.288 27.6608L130.922 28.824C130.419 29.514 129.807 30.0168 129.081 30.3322C128.36 30.6477 127.585 30.8054 126.77 30.8054C125.911 30.8054 125.121 30.6674 124.395 30.3963C123.684 30.1154 123.062 29.7211 122.539 29.2183C122.025 28.7057 121.621 28.0945 121.329 27.3799C121.038 26.6701 120.89 25.8766 120.89 25.0091C120.89 24.117 121.038 23.3136 121.329 22.589C121.621 21.8546 122.025 21.2336 122.539 20.721C123.062 20.2084 123.679 19.8141 124.395 19.543C125.116 19.2621 125.911 19.1191 126.77 19.1191C127.526 19.1191 128.222 19.2571 128.864 19.5282C129.515 19.7895 130.118 20.238 130.671 20.8787L129.13 22.0124Z" fill="#808191"/>
<path d="M135.39 19.4043H137.37V23.8304H142.574V19.4043H144.554V30.5188H142.574V25.6196H137.37V30.5188H135.39V19.4043Z" fill="#808191"/>
<path d="M150.202 19.4043H157.579V21.1935H152.182V23.924H157.292V25.7132H152.182V28.7297H157.86V30.5188H150.202V19.4043Z" fill="#808191"/>
<path fill-rule="evenodd" clip-rule="evenodd" d="M32.1155 24.9643C32.1155 33.7721 24.9663 40.9091 16.1433 40.9091C7.32036 40.9091 0.171143 33.7721 0.171143 24.9643C0.171143 16.1565 7.32036 9.01953 16.1433 9.01953C24.9663 9.01953 32.1155 16.1565 32.1155 24.9643ZM11.6158 31.3077H8.51518C7.86346 31.3077 7.54253 31.3077 7.34504 31.1845C7.13274 31.0465 7.00437 30.8198 6.98956 30.5684C6.97968 30.3367 7.13768 30.0558 7.4586 29.489L15.1114 16.0234C15.4373 15.4517 15.6002 15.1658 15.8076 15.0574C16.0298 14.944 16.2964 14.944 16.5235 15.0574C16.7309 15.1609 16.8938 15.4467 17.2196 16.0234L18.7946 18.7638L18.8045 18.7786C19.1551 19.3898 19.3328 19.7052 19.4118 20.0305C19.4957 20.3854 19.4957 20.7649 19.4118 21.1198C19.3328 21.45 19.1551 21.7606 18.7996 22.3865L14.7806 29.4791L14.7707 29.4988C14.4153 30.1199 14.2375 30.4304 13.9907 30.667C13.7191 30.9233 13.3932 31.1155 13.0378 31.219C12.7119 31.3077 12.3465 31.3077 11.6158 31.3077ZM19.4414 31.3077H23.885C24.5417 31.3077 24.8675 31.3077 25.065 31.1796C25.2773 31.0416 25.4106 30.8099 25.4205 30.5585C25.4304 30.3367 25.2724 30.0656 24.9663 29.5333C24.9564 29.5136 24.9465 29.4988 24.9317 29.4791L22.705 25.679L22.6803 25.6346C22.3692 25.1072 22.2113 24.8411 22.0088 24.7376C21.7867 24.6242 21.52 24.6242 21.2979 24.7376C21.0954 24.8411 20.9276 25.122 20.6017 25.6839L18.3848 29.484L18.375 29.4988C18.0491 30.0558 17.8862 30.3367 17.901 30.5684C17.9158 30.8198 18.0442 31.0514 18.2565 31.1894C18.4589 31.3077 18.7897 31.3077 19.4414 31.3077Z" fill="#808191"/>
</g>
<defs>
<clipPath id="clip0_203_1318">
<rect width="157.658" height="50" fill="white" transform="translate(0.171143)"/>
</clipPath>
</defs>
</svg>
