<?xml version="1.0" encoding="UTF-8"?>
<svg version="1.1" xmlns="http://www.w3.org/2000/svg" xmlns:xlink="http://www.w3.org/1999/xlink">
<defs>

</defs>
<symbol id="i-activity" viewBox="0 0 24 24" fill="none" xmlns="http://www.w3.org/2000/svg"><path d="M7.245 14.781l2.993-3.89 3.414 2.682 2.93-3.78"/><circle cx="19.995" cy="4.2" r="1.922"/><path d="M14.925 3.12H7.657c-3.011 0-4.879 2.133-4.879 5.144v8.083c0 3.011 1.831 5.135 4.879 5.135h8.604c3.012 0 4.879-2.124 4.879-5.135v-7.04"/></symbol>
<symbol id="i-arrow-up" viewBox="0 0 24 24" xmlns="http://www.w3.org/2000/svg"><path d="M14.6 8H7c-.6 0-1-.4-1-1s.4-1 1-1h10c.6 0 1 .4 1 1v10c0 .6-.4 1-1 1s-1-.4-1-1V9.4l-8.3 8.3c-.4.4-1 .4-1.4 0-.4-.4-.4-1 0-1.4L14.6 8z"/></symbol>
<symbol id="i-bnb-logo" viewBox="0 0 10 10" xmlns="http://www.w3.org/2000/svg"><path d="M3.254 4.282l1.748-1.748L6.75 4.283l1.017-1.017L5.002.5 2.237 3.265l1.017 1.017zM.502 5l1.017-1.017L2.536 5 1.519 6.017.502 5zm2.752.718l1.748 1.748L6.75 5.717l1.017 1.017L5.002 9.5 2.237 6.735l-.001-.001 1.018-1.016zM7.468 5l1.017-1.017L9.502 5 8.485 6.017 7.468 5z"/><path d="M6.03 5h.001L5 3.968l-.762.762-.088.088-.18.18L3.966 5l.001.002L5 6.032l1.032-1.031V5z"/></symbol>
<symbol id="i-check" viewBox="0 0 511.985 511.985"><path d="M500.088 83.681c-15.841-15.862-41.564-15.852-57.426 0L184.205 342.148 69.332 227.276c-15.862-15.862-41.574-15.862-57.436 0-15.862 15.862-15.862 41.574 0 57.436l143.585 143.585c7.926 7.926 18.319 11.899 28.713 11.899 10.394 0 20.797-3.963 28.723-11.899l287.171-287.181c15.862-15.851 15.862-41.574 0-57.435z"/></symbol>
<symbol id="i-close" viewBox="0 0 12 12" fill="none" stroke="#F0F0F2" xmlns="http://www.w3.org/2000/svg"><path d="M10.566 1.432l-9.133 9.133M10.57 10.571L1.429 1.428" stroke-width="1.143" stroke-linecap="round" stroke-linejoin="round"/></symbol>
<symbol id="i-collect" viewBox="0 0 24 24" fill="none" xmlns="http://www.w3.org/2000/svg"><path d="M4.794 7.056a2.262 2.262 0 012.261-2.262h1.03c.595 0 1.168-.236 1.592-.657l.72-.72a2.262 2.262 0 013.197-.008l.01.008.72.72c.422.42.995.657 1.592.657h1.028a2.262 2.262 0 012.262 2.262v1.027c0 .598.236 1.17.657 1.594l.72.72c.885.88.89 2.312.01 3.198l-.01.009-.72.72a2.256 2.256 0 00-.657 1.592v1.029a2.261 2.261 0 01-2.262 2.26h-1.028a2.26 2.26 0 00-1.593.659l-.72.719a2.26 2.26 0 01-3.207 0l-.719-.72a2.263 2.263 0 00-1.593-.657H7.055a2.261 2.261 0 01-2.26-2.261v-1.03c0-.595-.238-1.17-.659-1.591l-.719-.72a2.26 2.26 0 01-.009-3.198l.01-.01.718-.72c.421-.423.658-.995.658-1.593V7.056M9.43 14.57l5.14-5.14" stroke="#F0F0F2" stroke-width="1.5" stroke-linecap="round" stroke-linejoin="round"/><path d="M14.566 15.322a.75.75 0 01-.53-.22.821.821 0 01-.16-.25.717.717 0 010-.57c.04-.09.09-.17.16-.24.28-.28.78-.28 1.06 0 .07.07.13.15.17.24.03.09.05.19.05.29 0 .101-.02.19-.05.28-.04.09-.1.18-.17.25a.75.75 0 01-.53.22zM9.426 10.183c-.1 0-.19-.021-.28-.061a.818.818 0 01-.25-.16.963.963 0 01-.16-.25.714.714 0 010-.57c.04-.09.09-.18.16-.24a.772.772 0 011.06 0c.14.14.22.33.22.53 0 .1-.01.19-.05.28-.04.09-.1.17-.17.25a.773.773 0 01-.53.22z" fill="#F0F0F2"/></symbol>
<symbol id="i-copy" xmlns="http://www.w3.org/2000/svg" viewBox="0 0 115.77 122.88"><path d="M89.62 13.96v7.73h12.2v.02c3.85.01 7.34 1.57 9.86 4.1 2.5 2.51 4.06 5.98 4.07 9.82h.02v73.3h-.02c-.01 3.84-1.57 7.33-4.1 9.86-2.51 2.5-5.98 4.06-9.82 4.07v.02H40.1v-.02c-3.84-.01-7.34-1.57-9.86-4.1-2.5-2.51-4.06-5.98-4.07-9.82h-.02V92.51h-12.2v-.02c-3.84-.01-7.34-1.57-9.86-4.1-2.5-2.51-4.06-5.98-4.07-9.82H0V13.95h.02c.01-3.85 1.58-7.34 4.1-9.86C6.63 1.59 10.1.03 13.94.02V0H75.67v.02c3.85.01 7.34 1.57 9.86 4.1 2.5 2.51 4.06 5.98 4.07 9.82h.02v.02zm-10.58 7.73v-7.75h.02c0-.91-.39-1.75-1.01-2.37-.61-.61-1.46-1-2.37-1v.02H13.95v-.02c-.91 0-1.75.39-2.37 1.01-.61.61-1 1.46-1 2.37h.02v64.62h-.02c0 .91.39 1.75 1.01 2.37.61.61 1.46 1 2.37 1v-.02h12.2V35.64h.02c.01-3.85 1.58-7.34 4.1-9.86 2.51-2.5 5.98-4.06 9.82-4.07v-.02H79.04zm26.14 87.23V35.63h.02c0-.91-.39-1.75-1.01-2.37-.61-.61-1.46-1-2.37-1v.02H40.09v-.02c-.91 0-1.75.39-2.37 1.01-.61.61-1 1.46-1 2.37h.02v73.3h-.02c0 .91.39 1.75 1.01 2.37.61.61 1.46 1 2.37 1v-.02H101.83v.02c.91 0 1.75-.39 2.37-1.01.61-.61 1-1.46 1-2.37h-.02v-.01z" fill-rule="evenodd" clip-rule="evenodd"/></symbol>
<symbol id="i-download" viewBox="0 0 24 24" fill="none" xmlns="http://www.w3.org/2000/svg"><path d="M12.122 15.436V3.396M15.038 12.508l-2.916 2.928-2.916-2.928"/><path d="M16.755 8.128h.933a3.684 3.684 0 013.684 3.685v4.884a3.675 3.675 0 01-3.675 3.675H6.557a3.685 3.685 0 01-3.685-3.685v-4.885a3.675 3.675 0 013.675-3.674h.942"/></symbol>
<symbol id="i-info" viewBox="0 0 19 19" xmlns="http://www.w3.org/2000/svg"><path fill-rule="evenodd" clip-rule="evenodd" d="M5 0a5 5 0 00-5 5v9a5 5 0 005 5h9a5 5 0 005-5V5a5 5 0 00-5-5H5zm1 1a5 5 0 00-5 5v7a5 5 0 005 5h7a5 5 0 005-5V6a5 5 0 00-5-5H6z"/><rect width="1" height="8" rx=".5" transform="matrix(-1 0 0 1 10 7)"/><rect width="1" height="1.053" rx=".5" transform="matrix(-1 0 0 1 10 4)"/></symbol>
<symbol id="i-menu" viewBox="0 0 22 22" xmlns="http://www.w3.org/2000/svg"><circle cx="3" cy="3" r="3"/><circle cx="19" cy="3" r="3"/><circle cx="3" cy="19" r="3"/></symbol>
<symbol id="i-telegram" viewBox="0 0 16 16" fill="none" xmlns="http://www.w3.org/2000/svg"><path d="M13.777 2.478L1.957 7.036c-.807.324-.802.774-.148.975l3.034.946 7.022-4.43c.332-.202.635-.093.386.128L6.56 9.79v.001l-.208 3.128c.306 0 .442-.14.614-.307l1.474-1.433 3.066 2.265c.565.311.97.151 1.112-.524l2.012-9.485c.206-.826-.315-1.2-.854-.956z" fill="#F0F0F2"/></symbol>
<symbol id="i-twitter" viewBox="0 0 16 16" fill="none" xmlns="http://www.w3.org/2000/svg"><path d="M13.089 5.319c.008.116.008.232.008.348 0 3.55-2.701 7.641-7.64 7.641a7.588 7.588 0 01-4.123-1.206c.216.025.423.033.648.033a5.38 5.38 0 003.334-1.147 2.69 2.69 0 01-2.511-1.862c.166.025.333.041.507.041.24 0 .483-.033.708-.091a2.685 2.685 0 01-2.154-2.635v-.034c.358.2.773.324 1.213.341a2.681 2.681 0 01-1.197-2.236c0-.499.133-.956.366-1.355a7.638 7.638 0 005.537 2.81 3.052 3.052 0 01-.067-.615 2.684 2.684 0 012.685-2.685c.774 0 1.472.324 1.963.848a5.305 5.305 0 001.704-.649 2.68 2.68 0 01-1.181 1.48 5.382 5.382 0 001.546-.416 5.763 5.763 0 01-1.346 1.389z" fill="#F0F0F2"/></symbol>
<symbol id="i-wallet" viewBox="0 0 24 24" fill="none" xmlns="http://www.w3.org/2000/svg"><path d="M21.639 14.396H17.59a2.693 2.693 0 01-2.693-2.692 2.693 2.693 0 012.693-2.69h4.048M18.049 11.643h-.312" stroke="#F0F0F2" stroke-width="1.5" stroke-linecap="round" stroke-linejoin="round"/><path clip-rule="evenodd" d="M7.748 3h8.643a5.248 5.248 0 015.248 5.248v7.177a5.248 5.248 0 01-5.248 5.247H7.748A5.248 5.248 0 012.5 15.425V8.248A5.248 5.248 0 017.748 3z" stroke="#F0F0F2" stroke-width="1.5" stroke-linecap="round" stroke-linejoin="round"/><path d="M7.036 7.538h5.399" stroke="#F0F0F2" stroke-width="1.5" stroke-linecap="round" stroke-linejoin="round"/></symbol>
</svg>