<svg width="354" height="456" viewBox="0 0 354 456" fill="none" xmlns="http://www.w3.org/2000/svg">
<mask id="mask0_98_1064" style="mask-type:alpha" maskUnits="userSpaceOnUse" x="0" y="0" width="354" height="456">
<rect width="354" height="456" rx="32" fill="url(#paint0_linear_98_1064)"/>
</mask>
<g mask="url(#mask0_98_1064)">
<g opacity="0.8">
<g opacity="0.5">
<path d="M145.025 111.184C136.714 119.495 126.125 125.155 114.598 127.448C103.07 129.741 91.121 128.564 80.2621 124.066C69.4031 119.568 60.1219 111.951 53.5919 102.178C47.062 92.4056 43.5766 80.9159 43.5766 69.1623C43.5766 57.4087 47.062 45.9191 53.5919 36.1463C60.1219 26.3735 69.4032 18.7566 80.2621 14.2587C91.121 9.76075 103.07 8.5839 114.598 10.8769C126.125 13.1699 136.714 18.8298 145.025 27.1409L128.217 43.9495C123.23 38.9628 116.877 35.5669 109.96 34.1911C103.043 32.8153 95.8742 33.5214 89.3588 36.2201C82.8435 38.9189 77.2747 43.489 73.3567 49.3527C69.4387 55.2164 67.3475 62.1102 67.3475 69.1623C67.3475 76.2145 69.4387 83.1083 73.3567 88.9719C77.2747 94.8356 82.8435 99.4058 89.3588 102.105C95.8742 104.803 103.043 105.509 109.96 104.134C116.877 102.758 123.23 99.3618 128.217 94.3752L145.025 111.184Z" fill="#101010"/>
<path d="M111.465 77.625C119.776 69.314 130.365 63.6541 141.893 61.3611C153.42 59.068 165.369 60.2449 176.228 64.7428C187.087 69.2407 196.368 76.8577 202.898 86.6304C209.428 96.4032 212.914 107.893 212.914 119.646C212.914 131.4 209.428 142.89 202.898 152.662C196.368 162.435 187.087 170.052 176.228 174.55C165.369 179.048 153.42 180.225 141.893 177.932C130.365 175.639 119.776 169.979 111.465 161.668L128.273 144.859C133.26 149.846 139.613 153.242 146.53 154.618C153.447 155.994 160.616 155.287 167.131 152.589C173.647 149.89 179.216 145.32 183.134 139.456C187.051 133.592 189.143 126.699 189.143 119.646C189.143 112.594 187.051 105.701 183.134 99.8368C179.216 93.9732 173.647 89.403 167.131 86.7043C160.616 84.0055 153.447 83.2994 146.53 84.6752C139.613 86.051 133.26 89.447 128.273 94.4336L111.465 77.625Z" fill="#101010"/>
</g>
<g opacity="0.5">
<path d="M246.111 212.031C254.422 203.72 265.011 198.06 276.539 195.767C288.067 193.474 300.016 194.651 310.875 199.149C321.734 203.647 331.015 211.264 337.545 221.036C344.075 230.809 347.56 242.299 347.56 254.052C347.56 265.806 344.075 277.296 337.545 287.068C331.015 296.841 321.734 304.458 310.875 308.956C300.016 313.454 288.067 314.631 276.539 312.338C265.011 310.045 254.422 304.385 246.111 296.074L262.92 279.265C267.907 284.252 274.26 287.648 281.177 289.024C288.093 290.4 295.263 289.693 301.778 286.995C308.293 284.296 313.862 279.726 317.78 273.862C321.698 267.998 323.789 261.105 323.789 254.052C323.789 247 321.698 240.107 317.78 234.243C313.862 228.379 308.293 223.809 301.778 221.11C295.263 218.412 288.093 217.705 281.177 219.081C274.26 220.457 267.907 223.853 262.92 228.84L246.111 212.031Z" fill="#101010"/>
<path d="M279.67 245.592C271.359 253.903 260.77 259.562 249.242 261.855C237.714 264.149 225.766 262.972 214.907 258.474C204.048 253.976 194.766 246.359 188.236 236.586C181.707 226.813 178.221 215.324 178.221 203.57C178.221 191.816 181.707 180.327 188.236 170.554C194.766 160.781 204.048 153.164 214.907 148.666C225.766 144.169 237.714 142.992 249.242 145.285C260.77 147.578 271.359 153.238 279.67 161.549L262.861 178.357C257.875 173.371 251.521 169.975 244.605 168.599C237.688 167.223 230.519 167.929 224.003 170.628C217.488 173.327 211.919 177.897 208.001 183.76C204.083 189.624 201.992 196.518 201.992 203.57C201.992 210.622 204.083 217.516 208.001 223.38C211.919 229.243 217.488 233.814 224.003 236.512C230.519 239.211 237.688 239.917 244.605 238.541C251.521 237.166 257.875 233.77 262.861 228.783L279.67 245.592Z" fill="#101010"/>
</g>
<g opacity="0.5">
<path d="M77.9532 212.032C86.2642 203.721 96.8532 198.061 108.381 195.768C119.909 193.475 131.858 194.652 142.716 199.15C153.575 203.648 162.857 211.265 169.387 221.038C175.917 230.81 179.402 242.3 179.402 254.054C179.402 265.807 175.917 277.297 169.387 287.07C162.857 296.842 153.575 304.459 142.716 308.957C131.858 313.455 119.909 314.632 108.381 312.339C96.8532 310.046 86.2642 304.386 77.9532 296.075L94.7617 279.266C99.7484 284.253 106.102 287.649 113.018 289.025C119.935 290.401 127.104 289.695 133.62 286.996C140.135 284.297 145.704 279.727 149.622 273.863C153.54 268 155.631 261.106 155.631 254.054C155.631 247.001 153.54 240.108 149.622 234.244C145.704 228.38 140.135 223.81 133.62 221.111C127.104 218.413 119.935 217.707 113.018 219.082C106.102 220.458 99.7484 223.854 94.7617 228.841L77.9532 212.032Z" fill="#101010"/>
<path d="M111.514 245.592C103.203 253.903 92.6136 259.563 81.0859 261.856C69.5581 264.149 57.6093 262.972 46.7504 258.474C35.8914 253.976 26.6102 246.359 20.0802 236.586C13.5503 226.813 10.0649 215.324 10.0649 203.57C10.0649 191.817 13.5503 180.327 20.0802 170.554C26.6102 160.781 35.8914 153.164 46.7504 148.667C57.6093 144.169 69.5581 142.992 81.0859 145.285C92.6136 147.578 103.203 153.238 111.514 161.549L94.705 178.357C89.7184 173.371 83.3651 169.975 76.4484 168.599C69.5317 167.223 62.3624 167.929 55.8471 170.628C49.3317 173.327 43.763 177.897 39.845 183.761C35.927 189.624 33.8358 196.518 33.8358 203.57C33.8358 210.622 35.927 217.516 39.845 223.38C43.763 229.243 49.3317 233.814 55.8471 236.512C62.3624 239.211 69.5317 239.917 76.4484 238.541C83.3651 237.166 89.7184 233.77 94.705 228.783L111.514 245.592Z" fill="#101010"/>
</g>
<g opacity="0.5">
<path d="M212.48 346.558C220.791 338.247 231.38 332.587 242.907 330.294C254.435 328.001 266.384 329.178 277.243 333.676C288.102 338.174 297.383 345.791 303.913 355.564C310.443 365.337 313.928 376.826 313.928 388.58C313.928 400.333 310.443 411.823 303.913 421.596C297.383 431.369 288.102 438.986 277.243 443.483C266.384 447.981 254.435 449.158 242.907 446.865C231.38 444.572 220.791 438.912 212.48 430.601L229.288 413.793C234.275 418.779 240.628 422.175 247.545 423.551C254.461 424.927 261.631 424.221 268.146 421.522C274.661 418.823 280.23 414.253 284.148 408.389C288.066 402.526 290.157 395.632 290.157 388.58C290.157 381.528 288.066 374.634 284.148 368.77C280.23 362.907 274.661 358.336 268.146 355.638C261.631 352.939 254.461 352.233 247.545 353.609C240.628 354.984 234.275 358.38 229.288 363.367L212.48 346.558Z" fill="#101010"/>
<path d="M246.04 380.118C237.729 388.429 227.14 394.089 215.612 396.382C204.084 398.675 192.136 397.498 181.277 393C170.418 388.502 161.137 380.885 154.607 371.112C148.077 361.34 144.591 349.85 144.591 338.096C144.591 326.343 148.077 314.853 154.607 305.08C161.137 295.308 170.418 287.691 181.277 283.193C192.136 278.695 204.084 277.518 215.612 279.811C227.14 282.104 237.729 287.764 246.04 296.075L229.231 312.884C224.245 307.897 217.891 304.501 210.975 303.125C204.058 301.749 196.889 302.456 190.373 305.154C183.858 307.853 178.289 312.423 174.371 318.287C170.453 324.15 168.362 331.044 168.362 338.096C168.362 345.149 170.453 352.042 174.371 357.906C178.289 363.77 183.858 368.34 190.373 371.039C196.889 373.737 204.058 374.444 210.975 373.068C217.891 371.692 224.245 368.296 229.231 363.309L246.04 380.118Z" fill="#101010"/>
</g>
</g>
</g>
<defs>
<linearGradient id="paint0_linear_98_1064" x1="177" y1="0" x2="177" y2="456" gradientUnits="userSpaceOnUse">
<stop stop-color="#2B2B2B"/>
<stop offset="1" stop-color="#202020"/>
</linearGradient>
</defs>
</svg>
