<svg width="620" height="387" viewBox="0 0 620 387" fill="none" xmlns="http://www.w3.org/2000/svg">
<path d="M387 193.5C387 231.771 375.651 269.182 354.389 301.003C333.127 332.824 302.907 357.625 267.549 372.271C232.192 386.916 193.285 390.748 155.75 383.282C118.215 375.816 83.7363 357.387 56.6748 330.325C29.6134 303.264 11.1843 268.785 3.71805 231.25C-3.74819 193.715 0.0837538 154.808 14.7293 119.451C29.3749 84.0933 54.1763 53.8727 85.9972 32.6106C117.818 11.3486 155.229 -4.56373e-07 193.5 0V77.4C170.538 77.4 148.091 84.2091 128.998 96.9664C109.906 109.724 95.0249 127.856 86.2376 149.07C77.4502 170.285 75.1511 193.629 79.6308 216.15C84.1106 238.671 95.168 259.358 111.405 275.595C127.642 291.832 148.329 302.889 170.85 307.369C193.371 311.849 216.715 309.55 237.93 300.762C259.144 291.975 277.276 277.094 290.034 258.002C302.791 238.909 309.6 216.462 309.6 193.5H387Z" fill="#151515"/>
<path d="M232.2 193.5C232.2 155.229 243.548 117.818 264.81 85.9972C286.072 54.1762 316.293 29.3749 351.65 14.7293C387.008 0.0837402 425.914 -3.7482 463.45 3.71805C500.985 11.1843 535.463 29.6134 562.525 56.6748C589.586 83.7363 608.015 118.215 615.482 155.75C622.948 193.285 619.116 232.192 604.47 267.549C589.825 302.907 565.023 333.127 533.203 354.389C501.382 375.651 463.97 387 425.7 387V309.6C448.662 309.6 471.109 302.791 490.201 290.034C509.294 277.276 524.175 259.144 532.962 237.93C541.749 216.715 544.049 193.371 539.569 170.85C535.089 148.329 524.032 127.642 507.795 111.405C491.558 95.168 470.871 84.1106 448.35 79.6308C425.829 75.1511 402.485 77.4503 381.27 86.2376C360.056 95.0249 341.923 109.906 329.166 128.998C316.409 148.091 309.6 170.538 309.6 193.5H232.2Z" fill="#151515"/>
</svg>
