<svg width="323" height="170" viewBox="0 0 323 170" fill="none" xmlns="http://www.w3.org/2000/svg">
<g opacity="0.8">
<g opacity="0.5">
<path d="M84.9636 42.6029C84.9636 51.005 82.472 59.2184 77.8041 66.2045C73.1361 73.1906 66.5014 78.6356 58.7389 81.8509C50.9763 85.0663 42.4347 85.9075 34.194 84.2684C25.9533 82.6292 18.3838 78.5832 12.4426 72.642C6.50144 66.7008 2.45544 59.1313 0.816275 50.8907C-0.822893 42.65 0.0183876 34.1083 3.23373 26.3458C6.44908 18.5833 11.8941 11.9485 18.8802 7.28056C25.8663 2.61261 34.0797 0.121094 42.4818 0.121094L42.4818 17.1138C37.4405 17.1138 32.5125 18.6087 28.3208 21.4095C24.1292 24.2103 20.8622 28.1911 18.933 32.8486C17.0037 37.5061 16.499 42.6312 17.4825 47.5755C18.466 52.5199 20.8936 57.0617 24.4583 60.6264C28.023 64.1911 32.5647 66.6187 37.5091 67.6022C42.4535 68.5857 47.5785 68.0809 52.236 66.1517C56.8935 64.2225 60.8744 60.9555 63.6752 56.7638C66.4759 52.5722 67.9708 47.6441 67.9708 42.6029H84.9636Z" fill="url(#paint0_linear_129_792)"/>
<path d="M51.0364 42.6026C51.0364 34.2005 53.528 25.987 58.1959 19.001C62.8639 12.0149 69.4986 6.56987 77.2611 3.35452C85.0237 0.139176 93.5653 -0.702105 101.806 0.937064C110.047 2.57623 117.616 6.62223 123.557 12.5634C129.499 18.5046 133.545 26.0741 135.184 34.3148C136.823 42.5554 135.982 51.0971 132.766 58.8596C129.551 66.6222 124.106 73.2569 117.12 77.9249C110.134 82.5928 101.92 85.0844 93.5182 85.0844L93.5182 68.0916C98.5595 68.0916 103.488 66.5967 107.679 63.796C111.871 60.9952 115.138 57.0143 117.067 52.3568C118.996 47.6993 119.501 42.5743 118.518 37.6299C117.534 32.6855 115.106 28.1438 111.542 24.5791C107.977 21.0144 103.435 18.5868 98.4909 17.6033C93.5465 16.6198 88.4215 17.1245 83.764 19.0537C79.1065 20.9829 75.1256 24.2499 72.3248 28.4416C69.5241 32.6333 68.0292 37.5613 68.0292 42.6026H51.0364Z" fill="url(#paint1_linear_129_792)"/>
</g>
<g opacity="0.5">
<path d="M187.036 42.4817C187.036 34.0796 189.528 25.8662 194.196 18.8801C198.864 11.894 205.499 6.44902 213.261 3.23367C221.024 0.0183265 229.565 -0.822954 237.806 0.816215C246.047 2.45538 253.616 6.50138 259.557 12.4426C265.499 18.3837 269.545 25.9533 271.184 34.1939C272.823 42.4346 271.982 50.9763 268.766 58.7388C265.551 66.5013 260.106 73.1361 253.12 77.804C246.134 82.472 237.92 84.9635 229.518 84.9635L229.518 67.9708C234.559 67.9708 239.488 66.4759 243.679 63.6751C247.871 60.8743 251.138 56.8935 253.067 52.236C254.996 47.5784 255.501 42.4534 254.518 37.509C253.534 32.5647 251.106 28.0229 247.542 24.4582C243.977 20.8935 239.435 18.4659 234.491 17.4824C229.546 16.4989 224.421 17.0037 219.764 18.9329C215.106 20.8621 211.126 24.1291 208.325 28.3208C205.524 32.5124 204.029 37.4405 204.029 42.4817H187.036Z" fill="url(#paint2_linear_129_792)"/>
<path d="M220.964 42.482C220.964 50.8841 218.472 59.0975 213.804 66.0836C209.136 73.0697 202.501 78.5147 194.739 81.7301C186.976 84.9454 178.435 85.7867 170.194 84.1475C161.953 82.5084 154.384 78.4624 148.443 72.5212C142.501 66.58 138.455 59.0105 136.816 50.7698C135.177 42.5292 136.018 33.9875 139.234 26.225C142.449 18.4624 147.894 11.8277 154.88 7.15971C161.866 2.49176 170.08 0.00024404 178.482 0.000244141L178.482 16.993C173.441 16.993 168.512 18.4879 164.321 21.2886C160.129 24.0894 156.862 28.0703 154.933 32.7278C153.004 37.3853 152.499 42.5103 153.482 47.4547C154.466 52.3991 156.894 56.9408 160.458 60.5055C164.023 64.0702 168.565 66.4978 173.509 67.4813C178.454 68.4648 183.579 67.9601 188.236 66.0309C192.894 64.1016 196.874 60.8346 199.675 56.643C202.476 52.4513 203.971 47.5233 203.971 42.482H220.964Z" fill="url(#paint3_linear_129_792)"/>
</g>
<g opacity="0.5">
<path d="M102.036 127.482C102.036 119.08 104.528 110.866 109.196 103.88C113.864 96.894 120.499 91.449 128.261 88.2337C136.024 85.0183 144.565 84.177 152.806 85.8162C161.047 87.4554 168.616 91.5014 174.557 97.4426C180.499 103.384 184.545 110.953 186.184 119.194C187.823 127.435 186.982 135.976 183.766 143.739C180.551 151.501 175.106 158.136 168.12 162.804C161.134 167.472 152.92 169.964 144.518 169.964L144.518 152.971C149.559 152.971 154.488 151.476 158.679 148.675C162.871 145.874 166.138 141.893 168.067 137.236C169.996 132.578 170.501 127.453 169.518 122.509C168.534 117.565 166.106 113.023 162.542 109.458C158.977 105.894 154.435 103.466 149.491 102.482C144.546 101.499 139.421 102.004 134.764 103.933C130.106 105.862 126.126 109.129 123.325 113.321C120.524 117.512 119.029 122.44 119.029 127.482H102.036Z" fill="url(#paint4_linear_129_792)"/>
<path d="M135.964 127.482C135.964 135.884 133.472 144.098 128.804 151.084C124.136 158.07 117.501 163.515 109.739 166.73C101.976 169.946 93.4347 170.787 85.194 169.148C76.9533 167.508 69.3838 163.462 63.4426 157.521C57.5014 151.58 53.4554 144.011 51.8163 135.77C50.1771 127.529 51.0184 118.988 54.2337 111.225C57.4491 103.463 62.8941 96.8278 69.8802 92.1598C76.8663 87.4919 85.0797 85.0004 93.4818 85.0004L93.4818 101.993C88.4405 101.993 83.5125 103.488 79.3208 106.289C75.1292 109.09 71.8622 113.07 69.933 117.728C68.0037 122.385 67.499 127.51 68.4825 132.455C69.466 137.399 71.8936 141.941 75.4583 145.506C79.023 149.07 83.5647 151.498 88.5091 152.481C93.4535 153.465 98.5785 152.96 103.236 151.031C107.894 149.102 111.874 145.835 114.675 141.643C117.476 137.451 118.971 132.523 118.971 127.482H135.964Z" fill="url(#paint5_linear_129_792)"/>
</g>
<g opacity="0.5">
<path d="M238.036 127.482C238.036 119.08 240.528 110.866 245.196 103.88C249.864 96.894 256.499 91.449 264.261 88.2337C272.024 85.0183 280.565 84.177 288.806 85.8162C297.047 87.4554 304.616 91.5014 310.557 97.4426C316.499 103.384 320.545 110.953 322.184 119.194C323.823 127.435 322.982 135.976 319.766 143.739C316.551 151.501 311.106 158.136 304.12 162.804C297.134 167.472 288.92 169.964 280.518 169.964L280.518 152.971C285.559 152.971 290.488 151.476 294.679 148.675C298.871 145.874 302.138 141.893 304.067 137.236C305.996 132.578 306.501 127.453 305.518 122.509C304.534 117.565 302.106 113.023 298.542 109.458C294.977 105.894 290.435 103.466 285.491 102.482C280.546 101.499 275.421 102.004 270.764 103.933C266.106 105.862 262.126 109.129 259.325 113.321C256.524 117.512 255.029 122.44 255.029 127.482H238.036Z" fill="url(#paint6_linear_129_792)"/>
<path d="M271.964 127.482C271.964 135.884 269.472 144.098 264.804 151.084C260.136 158.07 253.501 163.515 245.739 166.73C237.976 169.946 229.435 170.787 221.194 169.148C212.953 167.508 205.384 163.462 199.443 157.521C193.501 151.58 189.455 144.011 187.816 135.77C186.177 127.529 187.018 118.988 190.234 111.225C193.449 103.463 198.894 96.8278 205.88 92.1598C212.866 87.4919 221.08 85.0004 229.482 85.0004L229.482 101.993C224.441 101.993 219.512 103.488 215.321 106.289C211.129 109.09 207.862 113.07 205.933 117.728C204.004 122.385 203.499 127.51 204.482 132.455C205.466 137.399 207.894 141.941 211.458 145.506C215.023 149.07 219.565 151.498 224.509 152.481C229.454 153.465 234.579 152.96 239.236 151.031C243.894 149.102 247.874 145.835 250.675 141.643C253.476 137.451 254.971 132.523 254.971 127.482H271.964Z" fill="url(#paint7_linear_129_792)"/>
</g>
</g>
<defs>
<linearGradient id="paint0_linear_129_792" x1="42.4818" y1="0.121094" x2="42.4818" y2="85.0847" gradientUnits="userSpaceOnUse">
<stop stop-color="#2B2B2B"/>
<stop offset="1" stop-color="#202020"/>
</linearGradient>
<linearGradient id="paint1_linear_129_792" x1="93.5182" y1="85.0844" x2="93.5182" y2="0.120789" gradientUnits="userSpaceOnUse">
<stop stop-color="#2B2B2B"/>
<stop offset="1" stop-color="#202020"/>
</linearGradient>
<linearGradient id="paint2_linear_129_792" x1="229.518" y1="84.9635" x2="229.518" y2="-6.10352e-05" gradientUnits="userSpaceOnUse">
<stop stop-color="#2B2B2B"/>
<stop offset="1" stop-color="#202020"/>
</linearGradient>
<linearGradient id="paint3_linear_129_792" x1="178.482" y1="0.000244141" x2="178.482" y2="84.9638" gradientUnits="userSpaceOnUse">
<stop stop-color="#2B2B2B"/>
<stop offset="1" stop-color="#202020"/>
</linearGradient>
<linearGradient id="paint4_linear_129_792" x1="144.518" y1="169.964" x2="144.518" y2="84.9999" gradientUnits="userSpaceOnUse">
<stop stop-color="#2B2B2B"/>
<stop offset="1" stop-color="#202020"/>
</linearGradient>
<linearGradient id="paint5_linear_129_792" x1="93.4818" y1="85.0004" x2="93.4818" y2="169.964" gradientUnits="userSpaceOnUse">
<stop stop-color="#2B2B2B"/>
<stop offset="1" stop-color="#202020"/>
</linearGradient>
<linearGradient id="paint6_linear_129_792" x1="280.518" y1="169.964" x2="280.518" y2="84.9999" gradientUnits="userSpaceOnUse">
<stop stop-color="#2B2B2B"/>
<stop offset="1" stop-color="#202020"/>
</linearGradient>
<linearGradient id="paint7_linear_129_792" x1="229.482" y1="85.0004" x2="229.482" y2="169.964" gradientUnits="userSpaceOnUse">
<stop stop-color="#2B2B2B"/>
<stop offset="1" stop-color="#202020"/>
</linearGradient>
</defs>
</svg>
